<svg width="512" height="111" viewBox="0 0 512 111" fill="none" xmlns="http://www.w3.org/2000/svg">
<g clip-path="url(#clip0_945_1043)">
<rect width="975" height="110" fill="#E7EAED"/>
<rect y="110" width="975" height="1" fill="#DADCE0"/>
<rect y="75" width="975" height="35" fill="white"/>
<rect x="16" y="85" width="3" height="3" fill="#E44A3E"/>
<rect x="16" y="90" width="3" height="3" fill="#529A60"/>
<rect x="16" y="95" width="3" height="3" fill="#529A60"/>
<rect x="21" y="85" width="3" height="3" fill="#E44A3E"/>
<rect x="21" y="90" width="3" height="3" fill="#3F8CEC"/>
<rect x="21" y="95" width="3" height="3" fill="#E6A439"/>
<rect x="26" y="85" width="3" height="3" fill="#E44A3E"/>
<rect x="26" y="90" width="3" height="3" fill="#E6A439"/>
<rect x="26" y="95" width="3" height="3" fill="#E6A439"/>
<path d="M43.7012 93.7734H40.127L39.3242 96H38.1641L41.4219 87.4688H42.4062L45.6699 96H44.5156L43.7012 93.7734ZM40.4668 92.8477H43.3672L41.9141 88.8574L40.4668 92.8477ZM52.0039 92.9004C52.0039 93.8652 51.7832 94.6426 51.3418 95.2324C50.9004 95.8223 50.3027 96.1172 49.5488 96.1172C48.7793 96.1172 48.1738 95.873 47.7324 95.3848V98.4375H46.6484V89.6602H47.6387L47.6914 90.3633C48.1328 89.8164 48.7461 89.543 49.5312 89.543C50.293 89.543 50.8945 89.8301 51.3359 90.4043C51.7812 90.9785 52.0039 91.7773 52.0039 92.8008V92.9004ZM50.9199 92.7773C50.9199 92.0625 50.7676 91.498 50.4629 91.084C50.1582 90.6699 49.7402 90.4629 49.209 90.4629C48.5527 90.4629 48.0605 90.7539 47.7324 91.3359V94.3652C48.0566 94.9434 48.5527 95.2324 49.2207 95.2324C49.7402 95.2324 50.1523 95.0273 50.457 94.6172C50.7656 94.2031 50.9199 93.5898 50.9199 92.7773ZM58.7422 92.9004C58.7422 93.8652 58.5215 94.6426 58.0801 95.2324C57.6387 95.8223 57.041 96.1172 56.2871 96.1172C55.5176 96.1172 54.9121 95.873 54.4707 95.3848V98.4375H53.3867V89.6602H54.377L54.4297 90.3633C54.8711 89.8164 55.4844 89.543 56.2695 89.543C57.0312 89.543 57.6328 89.8301 58.0742 90.4043C58.5195 90.9785 58.7422 91.7773 58.7422 92.8008V92.9004ZM57.6582 92.7773C57.6582 92.0625 57.5059 91.498 57.2012 91.084C56.8965 90.6699 56.4785 90.4629 55.9473 90.4629C55.291 90.4629 54.7988 90.7539 54.4707 91.3359V94.3652C54.7949 94.9434 55.291 95.2324 55.959 95.2324C56.4785 95.2324 56.8906 95.0273 57.1953 94.6172C57.5039 94.2031 57.6582 93.5898 57.6582 92.7773ZM63.8164 94.3184C63.8164 94.0254 63.7051 93.7988 63.4824 93.6387C63.2637 93.4746 62.8789 93.334 62.3281 93.2168C61.7812 93.0996 61.3457 92.959 61.0215 92.7949C60.7012 92.6309 60.4629 92.4355 60.3066 92.209C60.1543 91.9824 60.0781 91.7129 60.0781 91.4004C60.0781 90.8809 60.2969 90.4414 60.7344 90.082C61.1758 89.7227 61.7383 89.543 62.4219 89.543C63.1406 89.543 63.7227 89.7285 64.168 90.0996C64.6172 90.4707 64.8418 90.9453 64.8418 91.5234H63.752C63.752 91.2266 63.625 90.9707 63.3711 90.7559C63.1211 90.541 62.8047 90.4336 62.4219 90.4336C62.0273 90.4336 61.7188 90.5195 61.4961 90.6914C61.2734 90.8633 61.1621 91.0879 61.1621 91.3652C61.1621 91.627 61.2656 91.8242 61.4727 91.957C61.6797 92.0898 62.0527 92.2168 62.5918 92.3379C63.1348 92.459 63.5742 92.6035 63.9102 92.7715C64.2461 92.9395 64.4941 93.1426 64.6543 93.3809C64.8184 93.6152 64.9004 93.9023 64.9004 94.2422C64.9004 94.8086 64.6738 95.2637 64.2207 95.6074C63.7676 95.9473 63.1797 96.1172 62.457 96.1172C61.9492 96.1172 61.5 96.0273 61.1094 95.8477C60.7188 95.668 60.4121 95.418 60.1895 95.0977C59.9707 94.7734 59.8613 94.4238 59.8613 94.0488H60.9453C60.9648 94.4121 61.1094 94.7012 61.3789 94.916C61.6523 95.127 62.0117 95.2324 62.457 95.2324C62.8672 95.2324 63.1953 95.1504 63.4414 94.9863C63.6914 94.8184 63.8164 94.5957 63.8164 94.3184Z" fill="black"/>
<g clip-path="url(#clip1_945_1043)">
<rect x="81" y="84" width="16" height="16" fill="black"/>
<path d="M103.99 96V87.4688H106.779C107.705 87.4688 108.4 87.6602 108.865 88.043C109.334 88.4258 109.568 88.9922 109.568 89.7422C109.568 90.1406 109.455 90.4941 109.229 90.8027C109.002 91.1074 108.693 91.3438 108.303 91.5117C108.764 91.6406 109.127 91.8867 109.393 92.25C109.662 92.6094 109.797 93.0391 109.797 93.5391C109.797 94.3047 109.549 94.9062 109.053 95.3438C108.557 95.7812 107.855 96 106.949 96H103.99ZM105.115 92.0098V95.0801H106.973C107.496 95.0801 107.908 94.9453 108.209 94.6758C108.514 94.4023 108.666 94.0273 108.666 93.5508C108.666 92.5234 108.107 92.0098 106.99 92.0098H105.115ZM105.115 91.1074H106.814C107.307 91.1074 107.699 90.9844 107.992 90.7383C108.289 90.4922 108.438 90.1582 108.438 89.7363C108.438 89.2676 108.301 88.9277 108.027 88.7168C107.754 88.502 107.338 88.3945 106.779 88.3945H105.115V91.1074ZM111.01 92.7715C111.01 92.1504 111.131 91.5918 111.373 91.0957C111.619 90.5996 111.959 90.2168 112.393 89.9473C112.83 89.6777 113.328 89.543 113.887 89.543C114.75 89.543 115.447 89.8418 115.979 90.4395C116.514 91.0371 116.781 91.832 116.781 92.8242V92.9004C116.781 93.5176 116.662 94.0723 116.424 94.5645C116.189 95.0527 115.852 95.4336 115.41 95.707C114.973 95.9805 114.469 96.1172 113.898 96.1172C113.039 96.1172 112.342 95.8184 111.807 95.2207C111.275 94.623 111.01 93.832 111.01 92.8477V92.7715ZM112.1 92.9004C112.1 93.6035 112.262 94.168 112.586 94.5938C112.914 95.0195 113.352 95.2324 113.898 95.2324C114.449 95.2324 114.887 95.0176 115.211 94.5879C115.535 94.1543 115.697 93.5488 115.697 92.7715C115.697 92.0762 115.531 91.5137 115.199 91.084C114.871 90.6504 114.434 90.4336 113.887 90.4336C113.352 90.4336 112.92 90.6465 112.592 91.0723C112.264 91.498 112.1 92.1074 112.1 92.9004ZM117.854 92.7715C117.854 92.1504 117.975 91.5918 118.217 91.0957C118.463 90.5996 118.803 90.2168 119.236 89.9473C119.674 89.6777 120.172 89.543 120.73 89.543C121.594 89.543 122.291 89.8418 122.822 90.4395C123.357 91.0371 123.625 91.832 123.625 92.8242V92.9004C123.625 93.5176 123.506 94.0723 123.268 94.5645C123.033 95.0527 122.695 95.4336 122.254 95.707C121.816 95.9805 121.312 96.1172 120.742 96.1172C119.883 96.1172 119.186 95.8184 118.65 95.2207C118.119 94.623 117.854 93.832 117.854 92.8477V92.7715ZM118.943 92.9004C118.943 93.6035 119.105 94.168 119.43 94.5938C119.758 95.0195 120.195 95.2324 120.742 95.2324C121.293 95.2324 121.73 95.0176 122.055 94.5879C122.379 94.1543 122.541 93.5488 122.541 92.7715C122.541 92.0762 122.375 91.5137 122.043 91.084C121.715 90.6504 121.277 90.4336 120.73 90.4336C120.195 90.4336 119.764 90.6465 119.436 91.0723C119.107 91.498 118.943 92.1074 118.943 92.9004ZM126.754 93.0645L126.074 93.7734V96H124.99V87H126.074V92.4434L126.654 91.7461L128.629 89.6602H129.947L127.48 92.3086L130.234 96H128.963L126.754 93.0645ZM132.086 89.6602L132.115 90.3633C132.58 89.8164 133.207 89.543 133.996 89.543C134.883 89.543 135.486 89.8828 135.807 90.5625C136.018 90.2578 136.291 90.0117 136.627 89.8242C136.967 89.6367 137.367 89.543 137.828 89.543C139.219 89.543 139.926 90.2793 139.949 91.752V96H138.865V91.8164C138.865 91.3633 138.762 91.0254 138.555 90.8027C138.348 90.5762 138 90.4629 137.512 90.4629C137.109 90.4629 136.775 90.584 136.51 90.8262C136.244 91.0645 136.09 91.3867 136.047 91.793V96H134.957V91.8457C134.957 90.9238 134.506 90.4629 133.604 90.4629C132.893 90.4629 132.406 90.7656 132.145 91.3711V96H131.061V89.6602H132.086ZM145.504 96C145.441 95.875 145.391 95.6523 145.352 95.332C144.848 95.8555 144.246 96.1172 143.547 96.1172C142.922 96.1172 142.408 95.9414 142.006 95.5898C141.607 95.2344 141.408 94.7852 141.408 94.2422C141.408 93.582 141.658 93.0703 142.158 92.707C142.662 92.3398 143.369 92.1562 144.279 92.1562H145.334V91.6582C145.334 91.2793 145.221 90.9785 144.994 90.7559C144.768 90.5293 144.434 90.416 143.992 90.416C143.605 90.416 143.281 90.5137 143.02 90.709C142.758 90.9043 142.627 91.1406 142.627 91.418H141.537C141.537 91.1016 141.648 90.7969 141.871 90.5039C142.098 90.207 142.402 89.9727 142.785 89.8008C143.172 89.6289 143.596 89.543 144.057 89.543C144.787 89.543 145.359 89.7266 145.773 90.0938C146.188 90.457 146.402 90.959 146.418 91.5996V94.5176C146.418 95.0996 146.492 95.5625 146.641 95.9062V96H145.504ZM143.705 95.1738C144.045 95.1738 144.367 95.0859 144.672 94.9102C144.977 94.7344 145.197 94.5059 145.334 94.2246V92.9238H144.484C143.156 92.9238 142.492 93.3125 142.492 94.0898C142.492 94.4297 142.605 94.6953 142.832 94.8867C143.059 95.0781 143.35 95.1738 143.705 95.1738ZM151.182 90.6328C151.018 90.6055 150.84 90.5918 150.648 90.5918C149.938 90.5918 149.455 90.8945 149.201 91.5V96H148.117V89.6602H149.172L149.189 90.3926C149.545 89.8262 150.049 89.543 150.701 89.543C150.912 89.543 151.072 89.5703 151.182 89.625V90.6328ZM153.953 93.0645L153.273 93.7734V96H152.189V87H153.273V92.4434L153.854 91.7461L155.828 89.6602H157.146L154.68 92.3086L157.434 96H156.162L153.953 93.0645Z" fill="black"/>
</g>
<rect y="40" width="975" height="35" fill="white"/>
<path d="M88 56L90 54.0278L89.9853 54.0147L92 52V56H88Z" fill="#606368"/>
<path d="M92 58.5C92 61.8137 89.3137 64.5 86 64.5C82.6863 64.5 80 61.8137 80 58.5C80 55.1863 82.6863 52.5 86 52.5C87.5296 52.5 88.9256 53.0724 89.9853 54.0147M89.9853 54.0147C89.9902 54.019 89.9951 54.0234 90 54.0278L88 56H92V52L89.9853 54.0147Z" stroke="#606368" stroke-width="1.5"/>
<path d="M28 58H16M16 58L21.5 52.5M16 58L21.5 63.5" stroke="#BABCBE" stroke-width="1.5" stroke-linecap="round" stroke-linejoin="round"/>
<path d="M48 58L60 58M60 58L54.5 63.5M60 58L54.5 52.5" stroke="#BABCBE" stroke-width="1.5" stroke-linecap="round" stroke-linejoin="round"/>
<rect x="110" y="44" width="738" height="28" rx="14" fill="#F1F3F4"/>
<path d="M141.912 52.5V63H140.647V52.5H141.912ZM141.611 59.0215L141.085 59.001C141.09 58.4951 141.165 58.028 141.311 57.5996C141.456 57.1667 141.661 56.7907 141.926 56.4717C142.19 56.1527 142.505 55.9066 142.869 55.7334C143.238 55.5557 143.646 55.4668 144.093 55.4668C144.457 55.4668 144.785 55.5169 145.077 55.6172C145.369 55.7129 145.617 55.8678 145.822 56.082C146.032 56.2962 146.191 56.5742 146.301 56.916C146.41 57.2533 146.465 57.6657 146.465 58.1533V63H145.193V58.1396C145.193 57.7523 145.136 57.4424 145.022 57.21C144.909 56.973 144.742 56.8021 144.523 56.6973C144.305 56.5879 144.036 56.5332 143.717 56.5332C143.402 56.5332 143.115 56.5993 142.855 56.7314C142.6 56.8636 142.379 57.0459 142.192 57.2783C142.01 57.5107 141.867 57.7773 141.762 58.0781C141.661 58.3743 141.611 58.6888 141.611 59.0215ZM151.455 55.6035V56.5742H147.456V55.6035H151.455ZM148.81 53.8057H150.074V61.168C150.074 61.4186 150.113 61.6077 150.19 61.7354C150.268 61.863 150.368 61.9473 150.491 61.9883C150.614 62.0293 150.746 62.0498 150.888 62.0498C150.993 62.0498 151.102 62.0407 151.216 62.0225C151.334 61.9997 151.423 61.9814 151.482 61.9678L151.489 63C151.389 63.0319 151.257 63.0615 151.093 63.0889C150.933 63.1208 150.74 63.1367 150.512 63.1367C150.202 63.1367 149.917 63.0752 149.657 62.9521C149.397 62.8291 149.19 62.624 149.035 62.3369C148.885 62.0452 148.81 61.6533 148.81 61.1611V53.8057ZM156.035 55.6035V56.5742H152.036V55.6035H156.035ZM153.39 53.8057H154.654V61.168C154.654 61.4186 154.693 61.6077 154.771 61.7354C154.848 61.863 154.948 61.9473 155.071 61.9883C155.194 62.0293 155.326 62.0498 155.468 62.0498C155.573 62.0498 155.682 62.0407 155.796 62.0225C155.914 61.9997 156.003 61.9814 156.062 61.9678L156.069 63C155.969 63.0319 155.837 63.0615 155.673 63.0889C155.513 63.1208 155.32 63.1367 155.092 63.1367C154.782 63.1367 154.497 63.0752 154.237 62.9521C153.978 62.8291 153.77 62.624 153.615 62.3369C153.465 62.0452 153.39 61.6533 153.39 61.1611V53.8057ZM158.783 57.0254V65.8438H157.512V55.6035H158.674L158.783 57.0254ZM163.767 59.2402V59.3838C163.767 59.9215 163.703 60.4206 163.575 60.8809C163.448 61.3366 163.261 61.7331 163.015 62.0703C162.773 62.4076 162.475 62.6696 162.119 62.8564C161.764 63.0433 161.356 63.1367 160.896 63.1367C160.426 63.1367 160.011 63.0592 159.651 62.9043C159.291 62.7493 158.986 62.5238 158.735 62.2275C158.485 61.9313 158.284 61.5758 158.134 61.1611C157.988 60.7464 157.888 60.2793 157.833 59.7598V58.9941C157.888 58.4473 157.99 57.9574 158.141 57.5244C158.291 57.0915 158.489 56.7223 158.735 56.417C158.986 56.1071 159.289 55.8724 159.645 55.7129C160 55.5488 160.41 55.4668 160.875 55.4668C161.34 55.4668 161.752 55.5579 162.112 55.7402C162.472 55.918 162.775 56.1732 163.021 56.5059C163.268 56.8385 163.452 57.2373 163.575 57.7021C163.703 58.1624 163.767 58.6751 163.767 59.2402ZM162.495 59.3838V59.2402C162.495 58.8711 162.456 58.5247 162.379 58.2012C162.301 57.873 162.181 57.5859 162.017 57.3398C161.857 57.0892 161.652 56.8932 161.401 56.752C161.151 56.6061 160.852 56.5332 160.506 56.5332C160.187 56.5332 159.909 56.5879 159.672 56.6973C159.439 56.8066 159.241 56.9548 159.077 57.1416C158.913 57.3239 158.779 57.5335 158.674 57.7705C158.574 58.0029 158.498 58.2445 158.448 58.4951V60.2656C158.539 60.5846 158.667 60.8854 158.831 61.168C158.995 61.446 159.214 61.6715 159.487 61.8447C159.761 62.0133 160.105 62.0977 160.52 62.0977C160.861 62.0977 161.155 62.027 161.401 61.8857C161.652 61.7399 161.857 61.5417 162.017 61.291C162.181 61.0404 162.301 60.7533 162.379 60.4297C162.456 60.1016 162.495 59.7529 162.495 59.3838ZM169.687 61.0381C169.687 60.8558 169.646 60.6872 169.563 60.5322C169.486 60.3727 169.324 60.2292 169.078 60.1016C168.837 59.9694 168.472 59.8555 167.984 59.7598C167.574 59.6732 167.203 59.5706 166.87 59.4521C166.542 59.3337 166.262 59.1901 166.029 59.0215C165.801 58.8529 165.626 58.6546 165.503 58.4268C165.38 58.1989 165.318 57.9323 165.318 57.627C165.318 57.3353 165.382 57.0596 165.51 56.7998C165.642 56.54 165.826 56.3099 166.063 56.1094C166.305 55.9089 166.594 55.7516 166.932 55.6377C167.269 55.5238 167.645 55.4668 168.06 55.4668C168.652 55.4668 169.158 55.5716 169.577 55.7812C169.996 55.9909 170.318 56.2712 170.541 56.6221C170.764 56.9684 170.876 57.3535 170.876 57.7773H169.611C169.611 57.5723 169.55 57.374 169.427 57.1826C169.308 56.9867 169.133 56.8249 168.9 56.6973C168.673 56.5697 168.392 56.5059 168.06 56.5059C167.709 56.5059 167.424 56.5605 167.205 56.6699C166.991 56.7747 166.834 56.9092 166.733 57.0732C166.638 57.2373 166.59 57.4105 166.59 57.5928C166.59 57.7295 166.613 57.8525 166.658 57.9619C166.708 58.0667 166.795 58.1647 166.918 58.2559C167.041 58.3424 167.214 58.4245 167.438 58.502C167.661 58.5794 167.946 58.6569 168.292 58.7344C168.898 58.8711 169.397 59.0352 169.789 59.2266C170.181 59.418 170.473 59.6527 170.664 59.9307C170.855 60.2087 170.951 60.5459 170.951 60.9424C170.951 61.266 170.883 61.5622 170.746 61.8311C170.614 62.0999 170.42 62.3324 170.165 62.5283C169.914 62.7197 169.614 62.8701 169.263 62.9795C168.916 63.0843 168.527 63.1367 168.094 63.1367C167.442 63.1367 166.891 63.0205 166.439 62.7881C165.988 62.5557 165.646 62.2549 165.414 61.8857C165.182 61.5166 165.065 61.127 165.065 60.7168H166.337C166.355 61.0632 166.455 61.3389 166.638 61.5439C166.82 61.7445 167.043 61.888 167.308 61.9746C167.572 62.0566 167.834 62.0977 168.094 62.0977C168.44 62.0977 168.729 62.0521 168.962 61.9609C169.199 61.8698 169.379 61.7445 169.502 61.585C169.625 61.4255 169.687 61.2432 169.687 61.0381ZM172.558 62.3301C172.558 62.1159 172.624 61.9359 172.756 61.79C172.893 61.6396 173.089 61.5645 173.344 61.5645C173.599 61.5645 173.793 61.6396 173.925 61.79C174.062 61.9359 174.13 62.1159 174.13 62.3301C174.13 62.5397 174.062 62.7174 173.925 62.8633C173.793 63.0091 173.599 63.082 173.344 63.082C173.089 63.082 172.893 63.0091 172.756 62.8633C172.624 62.7174 172.558 62.5397 172.558 62.3301ZM172.564 56.2939C172.564 56.0798 172.631 55.8997 172.763 55.7539C172.899 55.6035 173.095 55.5283 173.351 55.5283C173.606 55.5283 173.799 55.6035 173.932 55.7539C174.068 55.8997 174.137 56.0798 174.137 56.2939C174.137 56.5036 174.068 56.6813 173.932 56.8271C173.799 56.973 173.606 57.0459 173.351 57.0459C173.095 57.0459 172.899 56.973 172.763 56.8271C172.631 56.6813 172.564 56.5036 172.564 56.2939ZM180.405 53.0469L176.256 63.8545H175.169L179.325 53.0469H180.405ZM184.657 53.0469L180.508 63.8545H179.421L183.577 53.0469H184.657ZM187.911 61.6875L189.812 55.6035H190.646L190.481 56.8135L188.547 63H187.733L187.911 61.6875ZM186.633 55.6035L188.253 61.7559L188.369 63H187.515L185.368 55.6035H186.633ZM192.464 61.708L194.009 55.6035H195.267L193.12 63H192.272L192.464 61.708ZM190.83 55.6035L192.689 61.585L192.901 63H192.095L190.105 56.7998L189.941 55.6035H190.83ZM199.635 63.1367C199.12 63.1367 198.653 63.0501 198.233 62.877C197.819 62.6992 197.461 62.4508 197.16 62.1318C196.864 61.8128 196.636 61.4346 196.477 60.9971C196.317 60.5596 196.237 60.0811 196.237 59.5615V59.2744C196.237 58.6729 196.326 58.1374 196.504 57.668C196.682 57.194 196.923 56.793 197.229 56.4648C197.534 56.1367 197.88 55.8883 198.268 55.7197C198.655 55.5511 199.056 55.4668 199.471 55.4668C199.999 55.4668 200.455 55.5579 200.838 55.7402C201.225 55.9225 201.542 56.1777 201.788 56.5059C202.034 56.8294 202.216 57.2122 202.335 57.6543C202.453 58.0918 202.513 58.5703 202.513 59.0898V59.6572H196.989V58.625H201.248V58.5293C201.23 58.2012 201.161 57.8822 201.043 57.5723C200.929 57.2624 200.747 57.0072 200.496 56.8066C200.245 56.6061 199.904 56.5059 199.471 56.5059C199.184 56.5059 198.919 56.5674 198.678 56.6904C198.436 56.8089 198.229 56.9867 198.056 57.2236C197.882 57.4606 197.748 57.75 197.652 58.0918C197.557 58.4336 197.509 58.8278 197.509 59.2744V59.5615C197.509 59.9124 197.557 60.2428 197.652 60.5527C197.753 60.8581 197.896 61.127 198.083 61.3594C198.274 61.5918 198.505 61.7741 198.773 61.9062C199.047 62.0384 199.357 62.1045 199.703 62.1045C200.15 62.1045 200.528 62.0133 200.838 61.8311C201.148 61.6488 201.419 61.4049 201.651 61.0996L202.417 61.708C202.257 61.9495 202.055 62.1797 201.809 62.3984C201.562 62.6172 201.259 62.7949 200.899 62.9316C200.544 63.0684 200.122 63.1367 199.635 63.1367ZM203.982 52.5H205.254V61.5645L205.145 63H203.982V52.5ZM210.251 59.2402V59.3838C210.251 59.9215 210.187 60.4206 210.06 60.8809C209.932 61.3366 209.745 61.7331 209.499 62.0703C209.253 62.4076 208.952 62.6696 208.597 62.8564C208.241 63.0433 207.833 63.1367 207.373 63.1367C206.904 63.1367 206.491 63.057 206.136 62.8975C205.785 62.7334 205.489 62.4987 205.247 62.1934C205.006 61.888 204.812 61.5189 204.666 61.0859C204.525 60.653 204.427 60.1654 204.372 59.623V58.9941C204.427 58.4473 204.525 57.9574 204.666 57.5244C204.812 57.0915 205.006 56.7223 205.247 56.417C205.489 56.1071 205.785 55.8724 206.136 55.7129C206.487 55.5488 206.895 55.4668 207.359 55.4668C207.824 55.4668 208.237 55.5579 208.597 55.7402C208.957 55.918 209.257 56.1732 209.499 56.5059C209.745 56.8385 209.932 57.2373 210.06 57.7021C210.187 58.1624 210.251 58.6751 210.251 59.2402ZM208.979 59.3838V59.2402C208.979 58.8711 208.945 58.5247 208.877 58.2012C208.809 57.873 208.699 57.5859 208.549 57.3398C208.398 57.0892 208.2 56.8932 207.954 56.752C207.708 56.6061 207.405 56.5332 207.045 56.5332C206.726 56.5332 206.448 56.5879 206.211 56.6973C205.979 56.8066 205.78 56.9548 205.616 57.1416C205.452 57.3239 205.318 57.5335 205.213 57.7705C205.113 58.0029 205.037 58.2445 204.987 58.4951V60.1426C205.06 60.4616 205.179 60.7692 205.343 61.0654C205.511 61.3571 205.735 61.5964 206.013 61.7832C206.295 61.9701 206.644 62.0635 207.059 62.0635C207.4 62.0635 207.692 61.9951 207.934 61.8584C208.18 61.7171 208.378 61.5234 208.528 61.2773C208.683 61.0312 208.797 60.7464 208.87 60.4229C208.943 60.0993 208.979 59.7529 208.979 59.3838ZM216.157 61.0381C216.157 60.8558 216.116 60.6872 216.034 60.5322C215.957 60.3727 215.795 60.2292 215.549 60.1016C215.307 59.9694 214.943 59.8555 214.455 59.7598C214.045 59.6732 213.674 59.5706 213.341 59.4521C213.013 59.3337 212.732 59.1901 212.5 59.0215C212.272 58.8529 212.097 58.6546 211.974 58.4268C211.851 58.1989 211.789 57.9323 211.789 57.627C211.789 57.3353 211.853 57.0596 211.98 56.7998C212.113 56.54 212.297 56.3099 212.534 56.1094C212.776 55.9089 213.065 55.7516 213.402 55.6377C213.74 55.5238 214.116 55.4668 214.53 55.4668C215.123 55.4668 215.629 55.5716 216.048 55.7812C216.467 55.9909 216.788 56.2712 217.012 56.6221C217.235 56.9684 217.347 57.3535 217.347 57.7773H216.082C216.082 57.5723 216.021 57.374 215.897 57.1826C215.779 56.9867 215.604 56.8249 215.371 56.6973C215.143 56.5697 214.863 56.5059 214.53 56.5059C214.179 56.5059 213.895 56.5605 213.676 56.6699C213.462 56.7747 213.304 56.9092 213.204 57.0732C213.108 57.2373 213.061 57.4105 213.061 57.5928C213.061 57.7295 213.083 57.8525 213.129 57.9619C213.179 58.0667 213.266 58.1647 213.389 58.2559C213.512 58.3424 213.685 58.4245 213.908 58.502C214.132 58.5794 214.416 58.6569 214.763 58.7344C215.369 58.8711 215.868 59.0352 216.26 59.2266C216.652 59.418 216.943 59.6527 217.135 59.9307C217.326 60.2087 217.422 60.5459 217.422 60.9424C217.422 61.266 217.354 61.5622 217.217 61.8311C217.085 62.0999 216.891 62.3324 216.636 62.5283C216.385 62.7197 216.084 62.8701 215.733 62.9795C215.387 63.0843 214.997 63.1367 214.564 63.1367C213.913 63.1367 213.361 63.0205 212.91 62.7881C212.459 62.5557 212.117 62.2549 211.885 61.8857C211.652 61.5166 211.536 61.127 211.536 60.7168H212.808C212.826 61.0632 212.926 61.3389 213.108 61.5439C213.291 61.7445 213.514 61.888 213.778 61.9746C214.043 62.0566 214.305 62.0977 214.564 62.0977C214.911 62.0977 215.2 62.0521 215.433 61.9609C215.67 61.8698 215.85 61.7445 215.973 61.585C216.096 61.4255 216.157 61.2432 216.157 61.0381ZM220.457 55.6035V63H219.186V55.6035H220.457ZM219.09 53.6416C219.09 53.4365 219.151 53.2633 219.274 53.1221C219.402 52.9808 219.589 52.9102 219.835 52.9102C220.076 52.9102 220.261 52.9808 220.389 53.1221C220.521 53.2633 220.587 53.4365 220.587 53.6416C220.587 53.8376 220.521 54.0062 220.389 54.1475C220.261 54.2842 220.076 54.3525 219.835 54.3525C219.589 54.3525 219.402 54.2842 219.274 54.1475C219.151 54.0062 219.09 53.8376 219.09 53.6416ZM225.584 55.6035V56.5742H221.585V55.6035H225.584ZM222.938 53.8057H224.203V61.168C224.203 61.4186 224.242 61.6077 224.319 61.7354C224.397 61.863 224.497 61.9473 224.62 61.9883C224.743 62.0293 224.875 62.0498 225.017 62.0498C225.121 62.0498 225.231 62.0407 225.345 62.0225C225.463 61.9997 225.552 61.9814 225.611 61.9678L225.618 63C225.518 63.0319 225.386 63.0615 225.222 63.0889C225.062 63.1208 224.868 63.1367 224.641 63.1367C224.331 63.1367 224.046 63.0752 223.786 62.9521C223.526 62.8291 223.319 62.624 223.164 62.3369C223.014 62.0452 222.938 61.6533 222.938 61.1611V53.8057ZM230.137 63.1367C229.622 63.1367 229.155 63.0501 228.735 62.877C228.321 62.6992 227.963 62.4508 227.662 62.1318C227.366 61.8128 227.138 61.4346 226.979 60.9971C226.819 60.5596 226.739 60.0811 226.739 59.5615V59.2744C226.739 58.6729 226.828 58.1374 227.006 57.668C227.184 57.194 227.425 56.793 227.73 56.4648C228.036 56.1367 228.382 55.8883 228.77 55.7197C229.157 55.5511 229.558 55.4668 229.973 55.4668C230.501 55.4668 230.957 55.5579 231.34 55.7402C231.727 55.9225 232.044 56.1777 232.29 56.5059C232.536 56.8294 232.718 57.2122 232.837 57.6543C232.955 58.0918 233.015 58.5703 233.015 59.0898V59.6572H227.491V58.625H231.75V58.5293C231.732 58.2012 231.663 57.8822 231.545 57.5723C231.431 57.2624 231.249 57.0072 230.998 56.8066C230.747 56.6061 230.406 56.5059 229.973 56.5059C229.686 56.5059 229.421 56.5674 229.18 56.6904C228.938 56.8089 228.731 56.9867 228.558 57.2236C228.384 57.4606 228.25 57.75 228.154 58.0918C228.059 58.4336 228.011 58.8278 228.011 59.2744V59.5615C228.011 59.9124 228.059 60.2428 228.154 60.5527C228.255 60.8581 228.398 61.127 228.585 61.3594C228.776 61.5918 229.007 61.7741 229.275 61.9062C229.549 62.0384 229.859 62.1045 230.205 62.1045C230.652 62.1045 231.03 62.0133 231.34 61.8311C231.65 61.6488 231.921 61.4049 232.153 61.0996L232.919 61.708C232.759 61.9495 232.557 62.1797 232.311 62.3984C232.064 62.6172 231.761 62.7949 231.401 62.9316C231.046 63.0684 230.624 63.1367 230.137 63.1367ZM234.512 62.3301C234.512 62.1159 234.578 61.9359 234.71 61.79C234.847 61.6396 235.043 61.5645 235.298 61.5645C235.553 61.5645 235.747 61.6396 235.879 61.79C236.016 61.9359 236.084 62.1159 236.084 62.3301C236.084 62.5397 236.016 62.7174 235.879 62.8633C235.747 63.0091 235.553 63.082 235.298 63.082C235.043 63.082 234.847 63.0091 234.71 62.8633C234.578 62.7174 234.512 62.5397 234.512 62.3301ZM241.143 62.0977C241.443 62.0977 241.721 62.0361 241.977 61.9131C242.232 61.79 242.441 61.6214 242.605 61.4072C242.77 61.1885 242.863 60.9401 242.886 60.6621H244.089C244.066 61.0996 243.918 61.5075 243.645 61.8857C243.376 62.2594 243.022 62.5625 242.585 62.7949C242.147 63.0228 241.667 63.1367 241.143 63.1367C240.587 63.1367 240.101 63.0387 239.687 62.8428C239.276 62.6468 238.935 62.3779 238.661 62.0361C238.392 61.6943 238.189 61.3024 238.053 60.8604C237.921 60.4137 237.854 59.9421 237.854 59.4453V59.1582C237.854 58.6615 237.921 58.1921 238.053 57.75C238.189 57.3034 238.392 56.9092 238.661 56.5674C238.935 56.2256 239.276 55.9567 239.687 55.7607C240.101 55.5648 240.587 55.4668 241.143 55.4668C241.721 55.4668 242.227 55.5853 242.66 55.8223C243.093 56.0547 243.433 56.3737 243.679 56.7793C243.929 57.1803 244.066 57.6361 244.089 58.1465H242.886C242.863 57.8411 242.776 57.5654 242.626 57.3193C242.48 57.0732 242.28 56.8773 242.024 56.7314C241.774 56.5811 241.48 56.5059 241.143 56.5059C240.755 56.5059 240.429 56.5833 240.165 56.7383C239.905 56.8887 239.698 57.0938 239.543 57.3535C239.393 57.6087 239.283 57.8936 239.215 58.208C239.151 58.5179 239.119 58.8346 239.119 59.1582V59.4453C239.119 59.7689 239.151 60.0879 239.215 60.4023C239.279 60.7168 239.386 61.0016 239.536 61.2568C239.691 61.512 239.898 61.7171 240.158 61.8721C240.423 62.0225 240.751 62.0977 241.143 62.0977ZM245.176 59.3838V59.2266C245.176 58.6934 245.253 58.1989 245.408 57.7432C245.563 57.2829 245.786 56.8841 246.078 56.5469C246.37 56.2051 246.723 55.9408 247.138 55.7539C247.552 55.5625 248.017 55.4668 248.532 55.4668C249.052 55.4668 249.519 55.5625 249.934 55.7539C250.353 55.9408 250.708 56.2051 251 56.5469C251.296 56.8841 251.522 57.2829 251.677 57.7432C251.832 58.1989 251.909 58.6934 251.909 59.2266V59.3838C251.909 59.917 251.832 60.4115 251.677 60.8672C251.522 61.3229 251.296 61.7217 251 62.0635C250.708 62.4007 250.355 62.665 249.94 62.8564C249.53 63.0433 249.065 63.1367 248.546 63.1367C248.026 63.1367 247.559 63.0433 247.145 62.8564C246.73 62.665 246.374 62.4007 246.078 62.0635C245.786 61.7217 245.563 61.3229 245.408 60.8672C245.253 60.4115 245.176 59.917 245.176 59.3838ZM246.44 59.2266V59.3838C246.44 59.7529 246.484 60.1016 246.57 60.4297C246.657 60.7533 246.787 61.0404 246.96 61.291C247.138 61.5417 247.359 61.7399 247.623 61.8857C247.887 62.027 248.195 62.0977 248.546 62.0977C248.892 62.0977 249.195 62.027 249.455 61.8857C249.719 61.7399 249.938 61.5417 250.111 61.291C250.285 61.0404 250.414 60.7533 250.501 60.4297C250.592 60.1016 250.638 59.7529 250.638 59.3838V59.2266C250.638 58.862 250.592 58.5179 250.501 58.1943C250.414 57.8662 250.282 57.5768 250.104 57.3262C249.931 57.071 249.713 56.8704 249.448 56.7246C249.188 56.5788 248.883 56.5059 248.532 56.5059C248.186 56.5059 247.881 56.5788 247.616 56.7246C247.356 56.8704 247.138 57.071 246.96 57.3262C246.787 57.5768 246.657 57.8662 246.57 58.1943C246.484 58.5179 246.44 58.862 246.44 59.2266ZM254.753 57.0732V63H253.481V55.6035H254.685L254.753 57.0732ZM254.493 59.0215L253.905 59.001C253.91 58.4951 253.976 58.028 254.104 57.5996C254.231 57.1667 254.42 56.7907 254.671 56.4717C254.922 56.1527 255.234 55.9066 255.607 55.7334C255.981 55.5557 256.414 55.4668 256.906 55.4668C257.253 55.4668 257.572 55.5169 257.863 55.6172C258.155 55.7129 258.408 55.8656 258.622 56.0752C258.836 56.2848 259.003 56.5537 259.121 56.8818C259.24 57.21 259.299 57.6064 259.299 58.0713V63H258.034V58.1328C258.034 57.7454 257.968 57.4355 257.836 57.2031C257.708 56.9707 257.526 56.8021 257.289 56.6973C257.052 56.5879 256.774 56.5332 256.455 56.5332C256.081 56.5332 255.769 56.5993 255.519 56.7314C255.268 56.8636 255.067 57.0459 254.917 57.2783C254.767 57.5107 254.657 57.7773 254.589 58.0781C254.525 58.3743 254.493 58.6888 254.493 59.0215ZM259.285 58.3242L258.438 58.584C258.442 58.1784 258.508 57.7887 258.636 57.415C258.768 57.0413 258.957 56.7087 259.203 56.417C259.454 56.1253 259.761 55.8952 260.126 55.7266C260.491 55.5534 260.908 55.4668 261.377 55.4668C261.773 55.4668 262.124 55.5192 262.43 55.624C262.74 55.7288 262.999 55.8906 263.209 56.1094C263.423 56.3236 263.585 56.5993 263.694 56.9365C263.804 57.2738 263.858 57.6748 263.858 58.1396V63H262.587V58.126C262.587 57.7113 262.521 57.39 262.389 57.1621C262.261 56.9297 262.079 56.7679 261.842 56.6768C261.609 56.5811 261.331 56.5332 261.008 56.5332C260.73 56.5332 260.484 56.5811 260.27 56.6768C260.055 56.7725 259.875 56.9046 259.729 57.0732C259.584 57.2373 259.472 57.4264 259.395 57.6406C259.322 57.8548 259.285 58.0827 259.285 58.3242Z" fill="#3D4043"/>
<path d="M124.911 56V54C124.911 54 124.911 52 126.899 52C128.887 52 128.887 54 128.887 54V56" stroke="#C4C4C4"/>
<rect x="122.923" y="56" width="7.95242" height="7" rx="1" fill="#C4C4C4"/>
<g clip-path="url(#clip2_945_1043)">
<path d="M0 15C0 10.5817 3.58172 7 8 7H232C236.418 7 240 10.5817 240 15V40H0V15Z" fill="white"/>
<g clip-path="url(#clip3_945_1043)">
<rect x="12" y="16" width="16" height="16" fill="black"/>
<path d="M39.2344 26.4219L40.9277 20.4688H41.748L41.2734 22.7832L39.4512 29H38.6367L39.2344 26.4219ZM37.4824 20.4688L38.8301 26.3047L39.2344 29H38.4258L36.3574 20.4688H37.4824ZM43.9395 26.2988L45.2578 20.4688H46.3887L44.3262 29H43.5176L43.9395 26.2988ZM41.8711 20.4688L43.5176 26.4219L44.1152 29H43.3008L41.543 22.7832L41.0625 20.4688H41.8711ZM49.9219 29.1172C49.4805 29.1172 49.0801 29.043 48.7207 28.8945C48.3652 28.7422 48.0586 28.5293 47.8008 28.2559C47.5469 27.9824 47.3516 27.6582 47.2148 27.2832C47.0781 26.9082 47.0098 26.498 47.0098 26.0527V25.8066C47.0098 25.291 47.0859 24.832 47.2383 24.4297C47.3906 24.0234 47.5977 23.6797 47.8594 23.3984C48.1211 23.1172 48.418 22.9043 48.75 22.7598C49.082 22.6152 49.4258 22.543 49.7812 22.543C50.2344 22.543 50.625 22.6211 50.9531 22.7773C51.2852 22.9336 51.5566 23.1523 51.7676 23.4336C51.9785 23.7109 52.1348 24.0391 52.2363 24.418C52.3379 24.793 52.3887 25.2031 52.3887 25.6484V26.1348H47.6543V25.25H51.3047V25.168C51.2891 24.8867 51.2305 24.6133 51.1289 24.3477C51.0312 24.082 50.875 23.8633 50.6602 23.6914C50.4453 23.5195 50.1523 23.4336 49.7812 23.4336C49.5352 23.4336 49.3086 23.4863 49.1016 23.5918C48.8945 23.6934 48.7168 23.8457 48.5684 24.0488C48.4199 24.252 48.3047 24.5 48.2227 24.793C48.1406 25.0859 48.0996 25.4238 48.0996 25.8066V26.0527C48.0996 26.3535 48.1406 26.6367 48.2227 26.9023C48.3086 27.1641 48.4316 27.3945 48.5918 27.5938C48.7559 27.793 48.9531 27.9492 49.1836 28.0625C49.418 28.1758 49.6836 28.2324 49.9805 28.2324C50.3633 28.2324 50.6875 28.1543 50.9531 27.998C51.2188 27.8418 51.4512 27.6328 51.6504 27.3711L52.3066 27.8926C52.1699 28.0996 51.9961 28.2969 51.7852 28.4844C51.5742 28.6719 51.3145 28.8242 51.0059 28.9414C50.7012 29.0586 50.3398 29.1172 49.9219 29.1172ZM53.6484 20H54.7383V27.7695L54.6445 29H53.6484V20ZM59.0215 25.7773V25.9004C59.0215 26.3613 58.9668 26.7891 58.8574 27.1836C58.748 27.5742 58.5879 27.9141 58.377 28.2031C58.166 28.4922 57.9082 28.7168 57.6035 28.877C57.2988 29.0371 56.9492 29.1172 56.5547 29.1172C56.1523 29.1172 55.7988 29.0488 55.4941 28.9121C55.1934 28.7715 54.9395 28.5703 54.7324 28.3086C54.5254 28.0469 54.3594 27.7305 54.2344 27.3594C54.1133 26.9883 54.0293 26.5703 53.9824 26.1055V25.5664C54.0293 25.0977 54.1133 24.6777 54.2344 24.3066C54.3594 23.9355 54.5254 23.6191 54.7324 23.3574C54.9395 23.0918 55.1934 22.8906 55.4941 22.7539C55.7949 22.6133 56.1445 22.543 56.543 22.543C56.9414 22.543 57.2949 22.6211 57.6035 22.7773C57.9121 22.9297 58.1699 23.1484 58.377 23.4336C58.5879 23.7188 58.748 24.0605 58.8574 24.459C58.9668 24.8535 59.0215 25.293 59.0215 25.7773ZM57.9316 25.9004V25.7773C57.9316 25.4609 57.9023 25.1641 57.8438 24.8867C57.7852 24.6055 57.6914 24.3594 57.5625 24.1484C57.4336 23.9336 57.2637 23.7656 57.0527 23.6445C56.8418 23.5195 56.582 23.457 56.2734 23.457C56 23.457 55.7617 23.5039 55.5586 23.5977C55.3594 23.6914 55.1895 23.8184 55.0488 23.9785C54.9082 24.1348 54.793 24.3145 54.7031 24.5176C54.6172 24.7168 54.5527 24.9238 54.5098 25.1387V26.5508C54.5723 26.8242 54.6738 27.0879 54.8145 27.3418C54.959 27.5918 55.1504 27.7969 55.3887 27.957C55.6309 28.1172 55.9297 28.1973 56.2852 28.1973C56.5781 28.1973 56.8281 28.1387 57.0352 28.0215C57.2461 27.9004 57.416 27.7344 57.5449 27.5234C57.6777 27.3125 57.7754 27.0684 57.8379 26.791C57.9004 26.5137 57.9316 26.2168 57.9316 25.9004ZM61.4766 23.8789V31.4375H60.3867V22.6602H61.3828L61.4766 23.8789ZM65.748 25.7773V25.9004C65.748 26.3613 65.6934 26.7891 65.584 27.1836C65.4746 27.5742 65.3145 27.9141 65.1035 28.2031C64.8965 28.4922 64.6406 28.7168 64.3359 28.877C64.0312 29.0371 63.6816 29.1172 63.2871 29.1172C62.8848 29.1172 62.5293 29.0508 62.2207 28.918C61.9121 28.7852 61.6504 28.5918 61.4355 28.3379C61.2207 28.084 61.0488 27.7793 60.9199 27.4238C60.7949 27.0684 60.709 26.668 60.6621 26.2227V25.5664C60.709 25.0977 60.7969 24.6777 60.9258 24.3066C61.0547 23.9355 61.2246 23.6191 61.4355 23.3574C61.6504 23.0918 61.9102 22.8906 62.2148 22.7539C62.5195 22.6133 62.8711 22.543 63.2695 22.543C63.668 22.543 64.0215 22.6211 64.3301 22.7773C64.6387 22.9297 64.8984 23.1484 65.1094 23.4336C65.3203 23.7188 65.4785 24.0605 65.584 24.459C65.6934 24.8535 65.748 25.293 65.748 25.7773ZM64.6582 25.9004V25.7773C64.6582 25.4609 64.625 25.1641 64.5586 24.8867C64.4922 24.6055 64.3887 24.3594 64.248 24.1484C64.1113 23.9336 63.9355 23.7656 63.7207 23.6445C63.5059 23.5195 63.25 23.457 62.9531 23.457C62.6797 23.457 62.4414 23.5039 62.2383 23.5977C62.0391 23.6914 61.8691 23.8184 61.7285 23.9785C61.5879 24.1348 61.4727 24.3145 61.3828 24.5176C61.2969 24.7168 61.2324 24.9238 61.1895 25.1387V26.6562C61.2676 26.9297 61.377 27.1875 61.5176 27.4297C61.6582 27.668 61.8457 27.8613 62.0801 28.0098C62.3145 28.1543 62.6094 28.2266 62.9648 28.2266C63.2578 28.2266 63.5098 28.166 63.7207 28.0449C63.9355 27.9199 64.1113 27.75 64.248 27.5352C64.3887 27.3203 64.4922 27.0742 64.5586 26.7969C64.625 26.5156 64.6582 26.2168 64.6582 25.9004ZM70.8691 27.916V24.6523C70.8691 24.4023 70.8184 24.1855 70.7168 24.002C70.6191 23.8145 70.4707 23.6699 70.2715 23.5684C70.0723 23.4668 69.8262 23.416 69.5332 23.416C69.2598 23.416 69.0195 23.4629 68.8125 23.5566C68.6094 23.6504 68.4492 23.7734 68.332 23.9258C68.2188 24.0781 68.1621 24.2422 68.1621 24.418H67.0781C67.0781 24.1914 67.1367 23.9668 67.2539 23.7441C67.3711 23.5215 67.5391 23.3203 67.7578 23.1406C67.9805 22.957 68.2461 22.8125 68.5547 22.707C68.8672 22.5977 69.2148 22.543 69.5977 22.543C70.0586 22.543 70.4648 22.6211 70.8164 22.7773C71.1719 22.9336 71.4492 23.1699 71.6484 23.4863C71.8516 23.7988 71.9531 24.1914 71.9531 24.6641V27.6172C71.9531 27.8281 71.9707 28.0527 72.0059 28.291C72.0449 28.5293 72.1016 28.7344 72.1758 28.9062V29H71.0449C70.9902 28.875 70.9473 28.709 70.916 28.502C70.8848 28.291 70.8691 28.0957 70.8691 27.916ZM71.0566 25.1562L71.0684 25.918H69.9727C69.6641 25.918 69.3887 25.9434 69.1465 25.9941C68.9043 26.041 68.7012 26.1133 68.5371 26.2109C68.373 26.3086 68.248 26.4316 68.1621 26.5801C68.0762 26.7246 68.0332 26.8945 68.0332 27.0898C68.0332 27.2891 68.0781 27.4707 68.168 27.6348C68.2578 27.7988 68.3926 27.9297 68.5723 28.0273C68.7559 28.1211 68.9805 28.168 69.2461 28.168C69.5781 28.168 69.8711 28.0977 70.125 27.957C70.3789 27.8164 70.5801 27.6445 70.7285 27.4414C70.8809 27.2383 70.9629 27.041 70.9746 26.8496L71.4375 27.3711C71.4102 27.5352 71.3359 27.7168 71.2148 27.916C71.0938 28.1152 70.9316 28.3066 70.7285 28.4902C70.5293 28.6699 70.291 28.8203 70.0137 28.9414C69.7402 29.0586 69.4316 29.1172 69.0879 29.1172C68.6582 29.1172 68.2812 29.0332 67.957 28.8652C67.6367 28.6973 67.3867 28.4727 67.207 28.1914C67.0312 27.9062 66.9434 27.5879 66.9434 27.2363C66.9434 26.8965 67.0098 26.5977 67.1426 26.3398C67.2754 26.0781 67.4668 25.8613 67.7168 25.6895C67.9668 25.5137 68.2676 25.3809 68.6191 25.291C68.9707 25.2012 69.3633 25.1562 69.7969 25.1562H71.0566ZM77.7656 22.6602H78.75V28.8652C78.75 29.4238 78.6367 29.9004 78.4102 30.2949C78.1836 30.6895 77.8672 30.9883 77.4609 31.1914C77.0586 31.3984 76.5938 31.502 76.0664 31.502C75.8477 31.502 75.5898 31.4668 75.293 31.3965C75 31.3301 74.7109 31.2148 74.4258 31.0508C74.1445 30.8906 73.9082 30.6738 73.7168 30.4004L74.2852 29.7559C74.5508 30.0762 74.8281 30.2988 75.1172 30.4238C75.4102 30.5488 75.6992 30.6113 75.9844 30.6113C76.3281 30.6113 76.625 30.5469 76.875 30.418C77.125 30.2891 77.3184 30.0977 77.4551 29.8438C77.5957 29.5938 77.666 29.2852 77.666 28.918V24.0547L77.7656 22.6602ZM73.4004 25.9004V25.7773C73.4004 25.293 73.457 24.8535 73.5703 24.459C73.6875 24.0605 73.8535 23.7188 74.0684 23.4336C74.2871 23.1484 74.5508 22.9297 74.8594 22.7773C75.168 22.6211 75.5156 22.543 75.9023 22.543C76.3008 22.543 76.6484 22.6133 76.9453 22.7539C77.2461 22.8906 77.5 23.0918 77.707 23.3574C77.918 23.6191 78.084 23.9355 78.2051 24.3066C78.3262 24.6777 78.4102 25.0977 78.457 25.5664V26.1055C78.4141 26.5703 78.3301 26.9883 78.2051 27.3594C78.084 27.7305 77.918 28.0469 77.707 28.3086C77.5 28.5703 77.2461 28.7715 76.9453 28.9121C76.6445 29.0488 76.293 29.1172 75.8906 29.1172C75.5117 29.1172 75.168 29.0371 74.8594 28.877C74.5547 28.7168 74.293 28.4922 74.0742 28.2031C73.8555 27.9141 73.6875 27.5742 73.5703 27.1836C73.457 26.7891 73.4004 26.3613 73.4004 25.9004ZM74.4844 25.7773V25.9004C74.4844 26.2168 74.5156 26.5137 74.5781 26.791C74.6445 27.0684 74.7441 27.3125 74.877 27.5234C75.0137 27.7344 75.1875 27.9004 75.3984 28.0215C75.6094 28.1387 75.8613 28.1973 76.1543 28.1973C76.5137 28.1973 76.8105 28.1211 77.0449 27.9688C77.2793 27.8164 77.4648 27.6152 77.6016 27.3652C77.7422 27.1152 77.8516 26.8438 77.9297 26.5508V25.1387C77.8867 24.9238 77.8203 24.7168 77.7305 24.5176C77.6445 24.3145 77.5312 24.1348 77.3906 23.9785C77.2539 23.8184 77.084 23.6914 76.8809 23.5977C76.6777 23.5039 76.4395 23.457 76.166 23.457C75.8691 23.457 75.6133 23.5195 75.3984 23.6445C75.1875 23.7656 75.0137 23.9336 74.877 24.1484C74.7441 24.3594 74.6445 24.6055 74.5781 24.8867C74.5156 25.1641 74.4844 25.4609 74.4844 25.7773ZM83.0273 29.1172C82.5859 29.1172 82.1855 29.043 81.8262 28.8945C81.4707 28.7422 81.1641 28.5293 80.9062 28.2559C80.6523 27.9824 80.457 27.6582 80.3203 27.2832C80.1836 26.9082 80.1152 26.498 80.1152 26.0527V25.8066C80.1152 25.291 80.1914 24.832 80.3438 24.4297C80.4961 24.0234 80.7031 23.6797 80.9648 23.3984C81.2266 23.1172 81.5234 22.9043 81.8555 22.7598C82.1875 22.6152 82.5312 22.543 82.8867 22.543C83.3398 22.543 83.7305 22.6211 84.0586 22.7773C84.3906 22.9336 84.6621 23.1523 84.873 23.4336C85.084 23.7109 85.2402 24.0391 85.3418 24.418C85.4434 24.793 85.4941 25.2031 85.4941 25.6484V26.1348H80.7598V25.25H84.4102V25.168C84.3945 24.8867 84.3359 24.6133 84.2344 24.3477C84.1367 24.082 83.9805 23.8633 83.7656 23.6914C83.5508 23.5195 83.2578 23.4336 82.8867 23.4336C82.6406 23.4336 82.4141 23.4863 82.207 23.5918C82 23.6934 81.8223 23.8457 81.6738 24.0488C81.5254 24.252 81.4102 24.5 81.3281 24.793C81.2461 25.0859 81.2051 25.4238 81.2051 25.8066V26.0527C81.2051 26.3535 81.2461 26.6367 81.3281 26.9023C81.4141 27.1641 81.5371 27.3945 81.6973 27.5938C81.8613 27.793 82.0586 27.9492 82.2891 28.0625C82.5234 28.1758 82.7891 28.2324 83.0859 28.2324C83.4688 28.2324 83.793 28.1543 84.0586 27.998C84.3242 27.8418 84.5566 27.6328 84.7559 27.3711L85.4121 27.8926C85.2754 28.0996 85.1016 28.2969 84.8906 28.4844C84.6797 28.6719 84.4199 28.8242 84.1113 28.9414C83.8066 29.0586 83.4453 29.1172 83.0273 29.1172ZM92.3906 22.6602V23.4922H88.9629V22.6602H92.3906ZM90.123 21.1191H91.207V27.4297C91.207 27.6445 91.2402 27.8066 91.3066 27.916C91.373 28.0254 91.459 28.0977 91.5645 28.1328C91.6699 28.168 91.7832 28.1855 91.9043 28.1855C91.9941 28.1855 92.0879 28.1777 92.1855 28.1621C92.2871 28.1426 92.3633 28.127 92.4141 28.1152L92.4199 29C92.334 29.0273 92.2207 29.0527 92.0801 29.0762C91.9434 29.1035 91.7773 29.1172 91.582 29.1172C91.3164 29.1172 91.0723 29.0645 90.8496 28.959C90.627 28.8535 90.4492 28.6777 90.3164 28.4316C90.1875 28.1816 90.123 27.8457 90.123 27.4238V21.1191ZM94.8398 22.6602V29H93.75V22.6602H94.8398ZM93.668 20.9785C93.668 20.8027 93.7207 20.6543 93.8262 20.5332C93.9355 20.4121 94.0957 20.3516 94.3066 20.3516C94.5137 20.3516 94.6719 20.4121 94.7812 20.5332C94.8945 20.6543 94.9512 20.8027 94.9512 20.9785C94.9512 21.1465 94.8945 21.291 94.7812 21.4121C94.6719 21.5293 94.5137 21.5879 94.3066 21.5879C94.0957 21.5879 93.9355 21.5293 93.8262 21.4121C93.7207 21.291 93.668 21.1465 93.668 20.9785ZM99.2344 22.6602V23.4922H95.8066V22.6602H99.2344ZM96.9668 21.1191H98.0508V27.4297C98.0508 27.6445 98.084 27.8066 98.1504 27.916C98.2168 28.0254 98.3027 28.0977 98.4082 28.1328C98.5137 28.168 98.627 28.1855 98.748 28.1855C98.8379 28.1855 98.9316 28.1777 99.0293 28.1621C99.1309 28.1426 99.207 28.127 99.2578 28.1152L99.2637 29C99.1777 29.0273 99.0645 29.0527 98.9238 29.0762C98.7871 29.1035 98.6211 29.1172 98.4258 29.1172C98.1602 29.1172 97.916 29.0645 97.6934 28.959C97.4707 28.8535 97.293 28.6777 97.1602 28.4316C97.0312 28.1816 96.9668 27.8457 96.9668 27.4238V21.1191ZM101.684 20V29H100.594V20H101.684ZM106.055 29.1172C105.613 29.1172 105.213 29.043 104.854 28.8945C104.498 28.7422 104.191 28.5293 103.934 28.2559C103.68 27.9824 103.484 27.6582 103.348 27.2832C103.211 26.9082 103.143 26.498 103.143 26.0527V25.8066C103.143 25.291 103.219 24.832 103.371 24.4297C103.523 24.0234 103.73 23.6797 103.992 23.3984C104.254 23.1172 104.551 22.9043 104.883 22.7598C105.215 22.6152 105.559 22.543 105.914 22.543C106.367 22.543 106.758 22.6211 107.086 22.7773C107.418 22.9336 107.689 23.1523 107.9 23.4336C108.111 23.7109 108.268 24.0391 108.369 24.418C108.471 24.793 108.521 25.2031 108.521 25.6484V26.1348H103.787V25.25H107.438V25.168C107.422 24.8867 107.363 24.6133 107.262 24.3477C107.164 24.082 107.008 23.8633 106.793 23.6914C106.578 23.5195 106.285 23.4336 105.914 23.4336C105.668 23.4336 105.441 23.4863 105.234 23.5918C105.027 23.6934 104.85 23.8457 104.701 24.0488C104.553 24.252 104.438 24.5 104.355 24.793C104.273 25.0859 104.232 25.4238 104.232 25.8066V26.0527C104.232 26.3535 104.273 26.6367 104.355 26.9023C104.441 27.1641 104.564 27.3945 104.725 27.5938C104.889 27.793 105.086 27.9492 105.316 28.0625C105.551 28.1758 105.816 28.2324 106.113 28.2324C106.496 28.2324 106.82 28.1543 107.086 27.998C107.352 27.8418 107.584 27.6328 107.783 27.3711L108.439 27.8926C108.303 28.0996 108.129 28.2969 107.918 28.4844C107.707 28.6719 107.447 28.8242 107.139 28.9414C106.834 29.0586 106.473 29.1172 106.055 29.1172Z" fill="#3D4043"/>
</g>
<rect x="203" y="40" width="33" height="29" transform="rotate(-90 203 40)" fill="url(#paint0_linear_945_1043)"/>
<path d="M220 20L223.5 23.5L227 27M227 20L220 27" stroke="#3D4043" stroke-width="1.5" stroke-linecap="round" stroke-linejoin="round"/>
<path d="M248 40H240V32C240 36.4183 243.582 40 248 40Z" fill="white"/>
<g clip-path="url(#clip4_945_1043)">
<rect x="252" y="16" width="16" height="16" fill="black"/>
<path d="M279.234 26.4219L280.928 20.4688H281.748L281.273 22.7832L279.451 29H278.637L279.234 26.4219ZM277.482 20.4688L278.83 26.3047L279.234 29H278.426L276.357 20.4688H277.482ZM283.939 26.2988L285.258 20.4688H286.389L284.326 29H283.518L283.939 26.2988ZM281.871 20.4688L283.518 26.4219L284.115 29H283.301L281.543 22.7832L281.062 20.4688H281.871ZM289.922 29.1172C289.48 29.1172 289.08 29.043 288.721 28.8945C288.365 28.7422 288.059 28.5293 287.801 28.2559C287.547 27.9824 287.352 27.6582 287.215 27.2832C287.078 26.9082 287.01 26.498 287.01 26.0527V25.8066C287.01 25.291 287.086 24.832 287.238 24.4297C287.391 24.0234 287.598 23.6797 287.859 23.3984C288.121 23.1172 288.418 22.9043 288.75 22.7598C289.082 22.6152 289.426 22.543 289.781 22.543C290.234 22.543 290.625 22.6211 290.953 22.7773C291.285 22.9336 291.557 23.1523 291.768 23.4336C291.979 23.7109 292.135 24.0391 292.236 24.418C292.338 24.793 292.389 25.2031 292.389 25.6484V26.1348H287.654V25.25H291.305V25.168C291.289 24.8867 291.23 24.6133 291.129 24.3477C291.031 24.082 290.875 23.8633 290.66 23.6914C290.445 23.5195 290.152 23.4336 289.781 23.4336C289.535 23.4336 289.309 23.4863 289.102 23.5918C288.895 23.6934 288.717 23.8457 288.568 24.0488C288.42 24.252 288.305 24.5 288.223 24.793C288.141 25.0859 288.1 25.4238 288.1 25.8066V26.0527C288.1 26.3535 288.141 26.6367 288.223 26.9023C288.309 27.1641 288.432 27.3945 288.592 27.5938C288.756 27.793 288.953 27.9492 289.184 28.0625C289.418 28.1758 289.684 28.2324 289.98 28.2324C290.363 28.2324 290.688 28.1543 290.953 27.998C291.219 27.8418 291.451 27.6328 291.65 27.3711L292.307 27.8926C292.17 28.0996 291.996 28.2969 291.785 28.4844C291.574 28.6719 291.314 28.8242 291.006 28.9414C290.701 29.0586 290.34 29.1172 289.922 29.1172ZM293.648 20H294.738V27.7695L294.645 29H293.648V20ZM299.021 25.7773V25.9004C299.021 26.3613 298.967 26.7891 298.857 27.1836C298.748 27.5742 298.588 27.9141 298.377 28.2031C298.166 28.4922 297.908 28.7168 297.604 28.877C297.299 29.0371 296.949 29.1172 296.555 29.1172C296.152 29.1172 295.799 29.0488 295.494 28.9121C295.193 28.7715 294.939 28.5703 294.732 28.3086C294.525 28.0469 294.359 27.7305 294.234 27.3594C294.113 26.9883 294.029 26.5703 293.982 26.1055V25.5664C294.029 25.0977 294.113 24.6777 294.234 24.3066C294.359 23.9355 294.525 23.6191 294.732 23.3574C294.939 23.0918 295.193 22.8906 295.494 22.7539C295.795 22.6133 296.145 22.543 296.543 22.543C296.941 22.543 297.295 22.6211 297.604 22.7773C297.912 22.9297 298.17 23.1484 298.377 23.4336C298.588 23.7188 298.748 24.0605 298.857 24.459C298.967 24.8535 299.021 25.293 299.021 25.7773ZM297.932 25.9004V25.7773C297.932 25.4609 297.902 25.1641 297.844 24.8867C297.785 24.6055 297.691 24.3594 297.562 24.1484C297.434 23.9336 297.264 23.7656 297.053 23.6445C296.842 23.5195 296.582 23.457 296.273 23.457C296 23.457 295.762 23.5039 295.559 23.5977C295.359 23.6914 295.189 23.8184 295.049 23.9785C294.908 24.1348 294.793 24.3145 294.703 24.5176C294.617 24.7168 294.553 24.9238 294.51 25.1387V26.5508C294.572 26.8242 294.674 27.0879 294.814 27.3418C294.959 27.5918 295.15 27.7969 295.389 27.957C295.631 28.1172 295.93 28.1973 296.285 28.1973C296.578 28.1973 296.828 28.1387 297.035 28.0215C297.246 27.9004 297.416 27.7344 297.545 27.5234C297.678 27.3125 297.775 27.0684 297.838 26.791C297.9 26.5137 297.932 26.2168 297.932 25.9004ZM304.084 27.3184C304.084 27.1621 304.049 27.0176 303.979 26.8848C303.912 26.748 303.773 26.625 303.562 26.5156C303.355 26.4023 303.043 26.3047 302.625 26.2227C302.273 26.1484 301.955 26.0605 301.67 25.959C301.389 25.8574 301.148 25.7344 300.949 25.5898C300.754 25.4453 300.604 25.2754 300.498 25.0801C300.393 24.8848 300.34 24.6562 300.34 24.3945C300.34 24.1445 300.395 23.9082 300.504 23.6855C300.617 23.4629 300.775 23.2656 300.979 23.0938C301.186 22.9219 301.434 22.7871 301.723 22.6895C302.012 22.5918 302.334 22.543 302.689 22.543C303.197 22.543 303.631 22.6328 303.99 22.8125C304.35 22.9922 304.625 23.2324 304.816 23.5332C305.008 23.8301 305.104 24.1602 305.104 24.5234H304.02C304.02 24.3477 303.967 24.1777 303.861 24.0137C303.76 23.8457 303.609 23.707 303.41 23.5977C303.215 23.4883 302.975 23.4336 302.689 23.4336C302.389 23.4336 302.145 23.4805 301.957 23.5742C301.773 23.6641 301.639 23.7793 301.553 23.9199C301.471 24.0605 301.43 24.209 301.43 24.3652C301.43 24.4824 301.449 24.5879 301.488 24.6816C301.531 24.7715 301.605 24.8555 301.711 24.9336C301.816 25.0078 301.965 25.0781 302.156 25.1445C302.348 25.2109 302.592 25.2773 302.889 25.3438C303.408 25.4609 303.836 25.6016 304.172 25.7656C304.508 25.9297 304.758 26.1309 304.922 26.3691C305.086 26.6074 305.168 26.8965 305.168 27.2363C305.168 27.5137 305.109 27.7676 304.992 27.998C304.879 28.2285 304.713 28.4277 304.494 28.5957C304.279 28.7598 304.021 28.8887 303.721 28.9824C303.424 29.0723 303.09 29.1172 302.719 29.1172C302.16 29.1172 301.688 29.0176 301.301 28.8184C300.914 28.6191 300.621 28.3613 300.422 28.0449C300.223 27.7285 300.123 27.3945 300.123 27.043H301.213C301.229 27.3398 301.314 27.5762 301.471 27.752C301.627 27.9238 301.818 28.0469 302.045 28.1211C302.271 28.1914 302.496 28.2266 302.719 28.2266C303.016 28.2266 303.264 28.1875 303.463 28.1094C303.666 28.0312 303.82 27.9238 303.926 27.7871C304.031 27.6504 304.084 27.4941 304.084 27.3184ZM307.77 22.6602V29H306.68V22.6602H307.77ZM306.598 20.9785C306.598 20.8027 306.65 20.6543 306.756 20.5332C306.865 20.4121 307.025 20.3516 307.236 20.3516C307.443 20.3516 307.602 20.4121 307.711 20.5332C307.824 20.6543 307.881 20.8027 307.881 20.9785C307.881 21.1465 307.824 21.291 307.711 21.4121C307.602 21.5293 307.443 21.5879 307.236 21.5879C307.025 21.5879 306.865 21.5293 306.756 21.4121C306.65 21.291 306.598 21.1465 306.598 20.9785ZM312.164 22.6602V23.4922H308.736V22.6602H312.164ZM309.896 21.1191H310.98V27.4297C310.98 27.6445 311.014 27.8066 311.08 27.916C311.146 28.0254 311.232 28.0977 311.338 28.1328C311.443 28.168 311.557 28.1855 311.678 28.1855C311.768 28.1855 311.861 28.1777 311.959 28.1621C312.061 28.1426 312.137 28.127 312.188 28.1152L312.193 29C312.107 29.0273 311.994 29.0527 311.854 29.0762C311.717 29.1035 311.551 29.1172 311.355 29.1172C311.09 29.1172 310.846 29.0645 310.623 28.959C310.4 28.8535 310.223 28.6777 310.09 28.4316C309.961 28.1816 309.896 27.8457 309.896 27.4238V21.1191ZM316.066 29.1172C315.625 29.1172 315.225 29.043 314.865 28.8945C314.51 28.7422 314.203 28.5293 313.945 28.2559C313.691 27.9824 313.496 27.6582 313.359 27.2832C313.223 26.9082 313.154 26.498 313.154 26.0527V25.8066C313.154 25.291 313.23 24.832 313.383 24.4297C313.535 24.0234 313.742 23.6797 314.004 23.3984C314.266 23.1172 314.562 22.9043 314.895 22.7598C315.227 22.6152 315.57 22.543 315.926 22.543C316.379 22.543 316.77 22.6211 317.098 22.7773C317.43 22.9336 317.701 23.1523 317.912 23.4336C318.123 23.7109 318.279 24.0391 318.381 24.418C318.482 24.793 318.533 25.2031 318.533 25.6484V26.1348H313.799V25.25H317.449V25.168C317.434 24.8867 317.375 24.6133 317.273 24.3477C317.176 24.082 317.02 23.8633 316.805 23.6914C316.59 23.5195 316.297 23.4336 315.926 23.4336C315.68 23.4336 315.453 23.4863 315.246 23.5918C315.039 23.6934 314.861 23.8457 314.713 24.0488C314.564 24.252 314.449 24.5 314.367 24.793C314.285 25.0859 314.244 25.4238 314.244 25.8066V26.0527C314.244 26.3535 314.285 26.6367 314.367 26.9023C314.453 27.1641 314.576 27.3945 314.736 27.5938C314.9 27.793 315.098 27.9492 315.328 28.0625C315.562 28.1758 315.828 28.2324 316.125 28.2324C316.508 28.2324 316.832 28.1543 317.098 27.998C317.363 27.8418 317.596 27.6328 317.795 27.3711L318.451 27.8926C318.314 28.0996 318.141 28.2969 317.93 28.4844C317.719 28.6719 317.459 28.8242 317.15 28.9414C316.846 29.0586 316.484 29.1172 316.066 29.1172ZM325.43 22.6602V23.4922H322.002V22.6602H325.43ZM323.162 21.1191H324.246V27.4297C324.246 27.6445 324.279 27.8066 324.346 27.916C324.412 28.0254 324.498 28.0977 324.604 28.1328C324.709 28.168 324.822 28.1855 324.943 28.1855C325.033 28.1855 325.127 28.1777 325.225 28.1621C325.326 28.1426 325.402 28.127 325.453 28.1152L325.459 29C325.373 29.0273 325.26 29.0527 325.119 29.0762C324.982 29.1035 324.816 29.1172 324.621 29.1172C324.355 29.1172 324.111 29.0645 323.889 28.959C323.666 28.8535 323.488 28.6777 323.355 28.4316C323.227 28.1816 323.162 27.8457 323.162 27.4238V21.1191ZM327.879 22.6602V29H326.789V22.6602H327.879ZM326.707 20.9785C326.707 20.8027 326.76 20.6543 326.865 20.5332C326.975 20.4121 327.135 20.3516 327.346 20.3516C327.553 20.3516 327.711 20.4121 327.82 20.5332C327.934 20.6543 327.99 20.8027 327.99 20.9785C327.99 21.1465 327.934 21.291 327.82 21.4121C327.711 21.5293 327.553 21.5879 327.346 21.5879C327.135 21.5879 326.975 21.5293 326.865 21.4121C326.76 21.291 326.707 21.1465 326.707 20.9785ZM332.273 22.6602V23.4922H328.846V22.6602H332.273ZM330.006 21.1191H331.09V27.4297C331.09 27.6445 331.123 27.8066 331.189 27.916C331.256 28.0254 331.342 28.0977 331.447 28.1328C331.553 28.168 331.666 28.1855 331.787 28.1855C331.877 28.1855 331.971 28.1777 332.068 28.1621C332.17 28.1426 332.246 28.127 332.297 28.1152L332.303 29C332.217 29.0273 332.104 29.0527 331.963 29.0762C331.826 29.1035 331.66 29.1172 331.465 29.1172C331.199 29.1172 330.955 29.0645 330.732 28.959C330.51 28.8535 330.332 28.6777 330.199 28.4316C330.07 28.1816 330.006 27.8457 330.006 27.4238V21.1191ZM334.723 20V29H333.633V20H334.723ZM339.094 29.1172C338.652 29.1172 338.252 29.043 337.893 28.8945C337.537 28.7422 337.23 28.5293 336.973 28.2559C336.719 27.9824 336.523 27.6582 336.387 27.2832C336.25 26.9082 336.182 26.498 336.182 26.0527V25.8066C336.182 25.291 336.258 24.832 336.41 24.4297C336.562 24.0234 336.77 23.6797 337.031 23.3984C337.293 23.1172 337.59 22.9043 337.922 22.7598C338.254 22.6152 338.598 22.543 338.953 22.543C339.406 22.543 339.797 22.6211 340.125 22.7773C340.457 22.9336 340.729 23.1523 340.939 23.4336C341.15 23.7109 341.307 24.0391 341.408 24.418C341.51 24.793 341.561 25.2031 341.561 25.6484V26.1348H336.826V25.25H340.477V25.168C340.461 24.8867 340.402 24.6133 340.301 24.3477C340.203 24.082 340.047 23.8633 339.832 23.6914C339.617 23.5195 339.324 23.4336 338.953 23.4336C338.707 23.4336 338.48 23.4863 338.273 23.5918C338.066 23.6934 337.889 23.8457 337.74 24.0488C337.592 24.252 337.477 24.5 337.395 24.793C337.312 25.0859 337.271 25.4238 337.271 25.8066V26.0527C337.271 26.3535 337.312 26.6367 337.395 26.9023C337.48 27.1641 337.604 27.3945 337.764 27.5938C337.928 27.793 338.125 27.9492 338.355 28.0625C338.59 28.1758 338.855 28.2324 339.152 28.2324C339.535 28.2324 339.859 28.1543 340.125 27.998C340.391 27.8418 340.623 27.6328 340.822 27.3711L341.479 27.8926C341.342 28.0996 341.168 28.2969 340.957 28.4844C340.746 28.6719 340.486 28.8242 340.178 28.9414C339.873 29.0586 339.512 29.1172 339.094 29.1172Z" fill="#3D4043"/>
</g>
<path d="M460 20L463.5 23.5L467 27M467 20L460 27" stroke="#3D4043" stroke-width="1.5" stroke-linecap="round" stroke-linejoin="round"/>
<g clip-path="url(#clip5_945_1043)">
<path d="M490.896 23.5H500.883M495.889 18V29" stroke="#3D4043" stroke-width="2" stroke-linecap="round"/>
</g>
</g>
</g>
<defs>
<linearGradient id="paint0_linear_945_1043" x1="219.5" y1="40" x2="219.5" y2="69" gradientUnits="userSpaceOnUse">
<stop stop-color="white" stop-opacity="0"/>
<stop offset="0.341368" stop-color="white"/>
</linearGradient>
<clipPath id="clip0_945_1043">
<rect width="512" height="111" fill="white"/>
</clipPath>
<clipPath id="clip1_945_1043">
<rect width="77" height="16" fill="white" transform="translate(81 84)"/>
</clipPath>
<clipPath id="clip2_945_1043">
<rect width="512" height="40" fill="white"/>
</clipPath>
<clipPath id="clip3_945_1043">
<rect width="97" height="16" fill="white" transform="translate(12 16)"/>
</clipPath>
<clipPath id="clip4_945_1043">
<rect width="90" height="16" fill="white" transform="translate(252 16)"/>
</clipPath>
<clipPath id="clip5_945_1043">
<rect width="32" height="40" fill="white" transform="translate(480)"/>
</clipPath>
</defs>
</svg>
