<svg width="512" height="111" viewBox="0 0 512 111" fill="none" xmlns="http://www.w3.org/2000/svg">
<g clip-path="url(#clip0_9_1315)">
<rect width="975" height="110" fill="#202124"/>
<rect y="75" width="975" height="35" fill="#35363A"/>
<g clip-path="url(#clip1_9_1315)">
<rect x="81" y="84" width="16" height="16" fill="black"/>
<path d="M103.99 96V87.4688H106.779C107.705 87.4688 108.4 87.6602 108.865 88.043C109.334 88.4258 109.568 88.9922 109.568 89.7422C109.568 90.1406 109.455 90.4941 109.229 90.8027C109.002 91.1074 108.693 91.3438 108.303 91.5117C108.764 91.6406 109.127 91.8867 109.393 92.25C109.662 92.6094 109.797 93.0391 109.797 93.5391C109.797 94.3047 109.549 94.9062 109.053 95.3438C108.557 95.7812 107.855 96 106.949 96H103.99ZM105.115 92.0098V95.0801H106.973C107.496 95.0801 107.908 94.9453 108.209 94.6758C108.514 94.4023 108.666 94.0273 108.666 93.5508C108.666 92.5234 108.107 92.0098 106.99 92.0098H105.115ZM105.115 91.1074H106.814C107.307 91.1074 107.699 90.9844 107.992 90.7383C108.289 90.4922 108.438 90.1582 108.438 89.7363C108.438 89.2676 108.301 88.9277 108.027 88.7168C107.754 88.502 107.338 88.3945 106.779 88.3945H105.115V91.1074ZM111.01 92.7715C111.01 92.1504 111.131 91.5918 111.373 91.0957C111.619 90.5996 111.959 90.2168 112.393 89.9473C112.83 89.6777 113.328 89.543 113.887 89.543C114.75 89.543 115.447 89.8418 115.979 90.4395C116.514 91.0371 116.781 91.832 116.781 92.8242V92.9004C116.781 93.5176 116.662 94.0723 116.424 94.5645C116.189 95.0527 115.852 95.4336 115.41 95.707C114.973 95.9805 114.469 96.1172 113.898 96.1172C113.039 96.1172 112.342 95.8184 111.807 95.2207C111.275 94.623 111.01 93.832 111.01 92.8477V92.7715ZM112.1 92.9004C112.1 93.6035 112.262 94.168 112.586 94.5938C112.914 95.0195 113.352 95.2324 113.898 95.2324C114.449 95.2324 114.887 95.0176 115.211 94.5879C115.535 94.1543 115.697 93.5488 115.697 92.7715C115.697 92.0762 115.531 91.5137 115.199 91.084C114.871 90.6504 114.434 90.4336 113.887 90.4336C113.352 90.4336 112.92 90.6465 112.592 91.0723C112.264 91.498 112.1 92.1074 112.1 92.9004ZM117.854 92.7715C117.854 92.1504 117.975 91.5918 118.217 91.0957C118.463 90.5996 118.803 90.2168 119.236 89.9473C119.674 89.6777 120.172 89.543 120.73 89.543C121.594 89.543 122.291 89.8418 122.822 90.4395C123.357 91.0371 123.625 91.832 123.625 92.8242V92.9004C123.625 93.5176 123.506 94.0723 123.268 94.5645C123.033 95.0527 122.695 95.4336 122.254 95.707C121.816 95.9805 121.312 96.1172 120.742 96.1172C119.883 96.1172 119.186 95.8184 118.65 95.2207C118.119 94.623 117.854 93.832 117.854 92.8477V92.7715ZM118.943 92.9004C118.943 93.6035 119.105 94.168 119.43 94.5938C119.758 95.0195 120.195 95.2324 120.742 95.2324C121.293 95.2324 121.73 95.0176 122.055 94.5879C122.379 94.1543 122.541 93.5488 122.541 92.7715C122.541 92.0762 122.375 91.5137 122.043 91.084C121.715 90.6504 121.277 90.4336 120.73 90.4336C120.195 90.4336 119.764 90.6465 119.436 91.0723C119.107 91.498 118.943 92.1074 118.943 92.9004ZM126.754 93.0645L126.074 93.7734V96H124.99V87H126.074V92.4434L126.654 91.7461L128.629 89.6602H129.947L127.48 92.3086L130.234 96H128.963L126.754 93.0645ZM132.086 89.6602L132.115 90.3633C132.58 89.8164 133.207 89.543 133.996 89.543C134.883 89.543 135.486 89.8828 135.807 90.5625C136.018 90.2578 136.291 90.0117 136.627 89.8242C136.967 89.6367 137.367 89.543 137.828 89.543C139.219 89.543 139.926 90.2793 139.949 91.752V96H138.865V91.8164C138.865 91.3633 138.762 91.0254 138.555 90.8027C138.348 90.5762 138 90.4629 137.512 90.4629C137.109 90.4629 136.775 90.584 136.51 90.8262C136.244 91.0645 136.09 91.3867 136.047 91.793V96H134.957V91.8457C134.957 90.9238 134.506 90.4629 133.604 90.4629C132.893 90.4629 132.406 90.7656 132.145 91.3711V96H131.061V89.6602H132.086ZM145.504 96C145.441 95.875 145.391 95.6523 145.352 95.332C144.848 95.8555 144.246 96.1172 143.547 96.1172C142.922 96.1172 142.408 95.9414 142.006 95.5898C141.607 95.2344 141.408 94.7852 141.408 94.2422C141.408 93.582 141.658 93.0703 142.158 92.707C142.662 92.3398 143.369 92.1562 144.279 92.1562H145.334V91.6582C145.334 91.2793 145.221 90.9785 144.994 90.7559C144.768 90.5293 144.434 90.416 143.992 90.416C143.605 90.416 143.281 90.5137 143.02 90.709C142.758 90.9043 142.627 91.1406 142.627 91.418H141.537C141.537 91.1016 141.648 90.7969 141.871 90.5039C142.098 90.207 142.402 89.9727 142.785 89.8008C143.172 89.6289 143.596 89.543 144.057 89.543C144.787 89.543 145.359 89.7266 145.773 90.0938C146.188 90.457 146.402 90.959 146.418 91.5996V94.5176C146.418 95.0996 146.492 95.5625 146.641 95.9062V96H145.504ZM143.705 95.1738C144.045 95.1738 144.367 95.0859 144.672 94.9102C144.977 94.7344 145.197 94.5059 145.334 94.2246V92.9238H144.484C143.156 92.9238 142.492 93.3125 142.492 94.0898C142.492 94.4297 142.605 94.6953 142.832 94.8867C143.059 95.0781 143.35 95.1738 143.705 95.1738ZM151.182 90.6328C151.018 90.6055 150.84 90.5918 150.648 90.5918C149.938 90.5918 149.455 90.8945 149.201 91.5V96H148.117V89.6602H149.172L149.189 90.3926C149.545 89.8262 150.049 89.543 150.701 89.543C150.912 89.543 151.072 89.5703 151.182 89.625V90.6328ZM153.953 93.0645L153.273 93.7734V96H152.189V87H153.273V92.4434L153.854 91.7461L155.828 89.6602H157.146L154.68 92.3086L157.434 96H156.162L153.953 93.0645Z" fill="white"/>
</g>
<rect x="16" y="85" width="3" height="3" fill="#E44A3E"/>
<rect x="16" y="90" width="3" height="3" fill="#529A60"/>
<rect x="16" y="95" width="3" height="3" fill="#529A60"/>
<rect x="21" y="85" width="3" height="3" fill="#E44A3E"/>
<rect x="21" y="90" width="3" height="3" fill="#3F8CEC"/>
<rect x="21" y="95" width="3" height="3" fill="#E6A439"/>
<rect x="26" y="85" width="3" height="3" fill="#E44A3E"/>
<rect x="26" y="90" width="3" height="3" fill="#E6A439"/>
<rect x="26" y="95" width="3" height="3" fill="#E6A439"/>
<path d="M43.7012 93.7734H40.127L39.3242 96H38.1641L41.4219 87.4688H42.4062L45.6699 96H44.5156L43.7012 93.7734ZM40.4668 92.8477H43.3672L41.9141 88.8574L40.4668 92.8477ZM52.0039 92.9004C52.0039 93.8652 51.7832 94.6426 51.3418 95.2324C50.9004 95.8223 50.3027 96.1172 49.5488 96.1172C48.7793 96.1172 48.1738 95.873 47.7324 95.3848V98.4375H46.6484V89.6602H47.6387L47.6914 90.3633C48.1328 89.8164 48.7461 89.543 49.5312 89.543C50.293 89.543 50.8945 89.8301 51.3359 90.4043C51.7812 90.9785 52.0039 91.7773 52.0039 92.8008V92.9004ZM50.9199 92.7773C50.9199 92.0625 50.7676 91.498 50.4629 91.084C50.1582 90.6699 49.7402 90.4629 49.209 90.4629C48.5527 90.4629 48.0605 90.7539 47.7324 91.3359V94.3652C48.0566 94.9434 48.5527 95.2324 49.2207 95.2324C49.7402 95.2324 50.1523 95.0273 50.457 94.6172C50.7656 94.2031 50.9199 93.5898 50.9199 92.7773ZM58.7422 92.9004C58.7422 93.8652 58.5215 94.6426 58.0801 95.2324C57.6387 95.8223 57.041 96.1172 56.2871 96.1172C55.5176 96.1172 54.9121 95.873 54.4707 95.3848V98.4375H53.3867V89.6602H54.377L54.4297 90.3633C54.8711 89.8164 55.4844 89.543 56.2695 89.543C57.0312 89.543 57.6328 89.8301 58.0742 90.4043C58.5195 90.9785 58.7422 91.7773 58.7422 92.8008V92.9004ZM57.6582 92.7773C57.6582 92.0625 57.5059 91.498 57.2012 91.084C56.8965 90.6699 56.4785 90.4629 55.9473 90.4629C55.291 90.4629 54.7988 90.7539 54.4707 91.3359V94.3652C54.7949 94.9434 55.291 95.2324 55.959 95.2324C56.4785 95.2324 56.8906 95.0273 57.1953 94.6172C57.5039 94.2031 57.6582 93.5898 57.6582 92.7773ZM63.8164 94.3184C63.8164 94.0254 63.7051 93.7988 63.4824 93.6387C63.2637 93.4746 62.8789 93.334 62.3281 93.2168C61.7812 93.0996 61.3457 92.959 61.0215 92.7949C60.7012 92.6309 60.4629 92.4355 60.3066 92.209C60.1543 91.9824 60.0781 91.7129 60.0781 91.4004C60.0781 90.8809 60.2969 90.4414 60.7344 90.082C61.1758 89.7227 61.7383 89.543 62.4219 89.543C63.1406 89.543 63.7227 89.7285 64.168 90.0996C64.6172 90.4707 64.8418 90.9453 64.8418 91.5234H63.752C63.752 91.2266 63.625 90.9707 63.3711 90.7559C63.1211 90.541 62.8047 90.4336 62.4219 90.4336C62.0273 90.4336 61.7188 90.5195 61.4961 90.6914C61.2734 90.8633 61.1621 91.0879 61.1621 91.3652C61.1621 91.627 61.2656 91.8242 61.4727 91.957C61.6797 92.0898 62.0527 92.2168 62.5918 92.3379C63.1348 92.459 63.5742 92.6035 63.9102 92.7715C64.2461 92.9395 64.4941 93.1426 64.6543 93.3809C64.8184 93.6152 64.9004 93.9023 64.9004 94.2422C64.9004 94.8086 64.6738 95.2637 64.2207 95.6074C63.7676 95.9473 63.1797 96.1172 62.457 96.1172C61.9492 96.1172 61.5 96.0273 61.1094 95.8477C60.7188 95.668 60.4121 95.418 60.1895 95.0977C59.9707 94.7734 59.8613 94.4238 59.8613 94.0488H60.9453C60.9648 94.4121 61.1094 94.7012 61.3789 94.916C61.6523 95.127 62.0117 95.2324 62.457 95.2324C62.8672 95.2324 63.1953 95.1504 63.4414 94.9863C63.6914 94.8184 63.8164 94.5957 63.8164 94.3184Z" fill="white"/>
<rect y="40" width="975" height="35" fill="#35363A"/>
<path d="M88 56L90 54.0278L89.9853 54.0147L92 52V56H88Z" fill="#F1F3F4"/>
<path d="M92 58.5C92 61.8137 89.3137 64.5 86 64.5C82.6863 64.5 80 61.8137 80 58.5C80 55.1863 82.6863 52.5 86 52.5C87.5296 52.5 88.9256 53.0724 89.9853 54.0147M89.9853 54.0147C89.9902 54.019 89.9951 54.0234 90 54.0278L88 56H92V52L89.9853 54.0147Z" stroke="#F1F3F4" stroke-width="1.5"/>
<path d="M28 58H16M16 58L21.5 52.5M16 58L21.5 63.5" stroke="#BEC1C6" stroke-width="1.5" stroke-linecap="round" stroke-linejoin="round"/>
<path d="M48 58L60 58M60 58L54.5 63.5M60 58L54.5 52.5" stroke="#86888A" stroke-width="1.5" stroke-linecap="round" stroke-linejoin="round"/>
<rect x="110" y="44" width="738" height="28" rx="14" fill="#202124"/>
<path d="M141.906 56.499C142.466 55.8109 143.195 55.4668 144.093 55.4668C145.656 55.4668 146.445 56.3486 146.458 58.1123V63H145.194V58.1055C145.189 57.5723 145.066 57.1781 144.824 56.9229C144.587 56.6676 144.216 56.54 143.71 56.54C143.3 56.54 142.94 56.6494 142.63 56.8682C142.32 57.0869 142.079 57.374 141.906 57.7295V63H140.641V52.5H141.906V56.499ZM150.068 53.8125V55.6035H151.448V56.5811H150.068V61.168C150.068 61.4642 150.129 61.6875 150.252 61.8379C150.375 61.9837 150.585 62.0566 150.881 62.0566C151.027 62.0566 151.227 62.0293 151.483 61.9746V63C151.15 63.0911 150.826 63.1367 150.512 63.1367C149.947 63.1367 149.521 62.9658 149.234 62.624C148.947 62.2822 148.803 61.7969 148.803 61.168V56.5811H147.456V55.6035H148.803V53.8125H150.068ZM154.648 53.8125V55.6035H156.029V56.5811H154.648V61.168C154.648 61.4642 154.709 61.6875 154.832 61.8379C154.955 61.9837 155.165 62.0566 155.461 62.0566C155.607 62.0566 155.808 62.0293 156.063 61.9746V63C155.73 63.0911 155.406 63.1367 155.092 63.1367C154.527 63.1367 154.101 62.9658 153.814 62.624C153.527 62.2822 153.383 61.7969 153.383 61.168V56.5811H152.036V55.6035H153.383V53.8125H154.648ZM163.76 59.3838C163.76 60.5094 163.503 61.4163 162.988 62.1045C162.473 62.7926 161.775 63.1367 160.896 63.1367C159.998 63.1367 159.292 62.8519 158.777 62.2822V65.8438H157.512V55.6035H158.667L158.729 56.4238C159.244 55.7858 159.959 55.4668 160.875 55.4668C161.764 55.4668 162.466 55.8018 162.981 56.4717C163.5 57.1416 163.76 58.0736 163.76 59.2676V59.3838ZM162.495 59.2402C162.495 58.4062 162.318 57.7477 161.962 57.2646C161.607 56.7816 161.119 56.54 160.499 56.54C159.734 56.54 159.159 56.8796 158.777 57.5586V61.0928C159.155 61.7673 159.734 62.1045 160.513 62.1045C161.119 62.1045 161.6 61.8652 161.955 61.3867C162.315 60.9036 162.495 60.1882 162.495 59.2402ZM169.68 61.0381C169.68 60.6963 169.55 60.432 169.29 60.2451C169.035 60.0537 168.586 59.8896 167.944 59.7529C167.306 59.6162 166.797 59.4521 166.419 59.2607C166.045 59.0693 165.767 58.8415 165.585 58.5771C165.407 58.3128 165.319 57.9984 165.319 57.6338C165.319 57.0277 165.574 56.515 166.084 56.0957C166.599 55.6764 167.255 55.4668 168.053 55.4668C168.892 55.4668 169.571 55.6833 170.09 56.1162C170.614 56.5492 170.876 57.1029 170.876 57.7773H169.605C169.605 57.431 169.457 57.1325 169.16 56.8818C168.869 56.6312 168.5 56.5059 168.053 56.5059C167.593 56.5059 167.233 56.6061 166.973 56.8066C166.713 57.0072 166.583 57.2692 166.583 57.5928C166.583 57.8981 166.704 58.1283 166.946 58.2832C167.187 58.4382 167.622 58.5863 168.251 58.7275C168.885 58.8688 169.397 59.0374 169.789 59.2334C170.181 59.4294 170.471 59.6663 170.657 59.9443C170.849 60.2178 170.945 60.5527 170.945 60.9492C170.945 61.61 170.68 62.141 170.152 62.542C169.623 62.9385 168.937 63.1367 168.094 63.1367C167.502 63.1367 166.977 63.0319 166.522 62.8223C166.066 62.6126 165.708 62.321 165.448 61.9473C165.193 61.569 165.066 61.1611 165.066 60.7236H166.33C166.353 61.1475 166.522 61.4847 166.836 61.7354C167.155 61.9814 167.574 62.1045 168.094 62.1045C168.573 62.1045 168.955 62.0088 169.242 61.8174C169.534 61.6214 169.68 61.3617 169.68 61.0381ZM172.551 62.3369C172.551 62.1182 172.615 61.9359 172.742 61.79C172.875 61.6442 173.071 61.5713 173.33 61.5713C173.59 61.5713 173.786 61.6442 173.918 61.79C174.055 61.9359 174.123 62.1182 174.123 62.3369C174.123 62.5465 174.055 62.722 173.918 62.8633C173.786 63.0046 173.59 63.0752 173.33 63.0752C173.071 63.0752 172.875 63.0046 172.742 62.8633C172.615 62.722 172.551 62.5465 172.551 62.3369ZM172.558 56.3008C172.558 56.082 172.622 55.8997 172.749 55.7539C172.881 55.6081 173.077 55.5352 173.337 55.5352C173.597 55.5352 173.793 55.6081 173.925 55.7539C174.062 55.8997 174.13 56.082 174.13 56.3008C174.13 56.5104 174.062 56.6859 173.925 56.8271C173.793 56.9684 173.597 57.0391 173.337 57.0391C173.077 57.0391 172.881 56.9684 172.749 56.8271C172.622 56.6859 172.558 56.5104 172.558 56.3008ZM176.236 63.8545H175.149L179.305 53.0469H180.385L176.236 63.8545ZM180.474 63.8545H179.387L183.543 53.0469H184.623L180.474 63.8545ZM192.539 61.2568L193.961 55.6035H195.226L193.073 63H192.047L190.249 57.3945L188.499 63H187.474L185.327 55.6035H186.585L188.041 61.1406L189.764 55.6035H190.782L192.539 61.2568ZM199.587 63.1367C198.585 63.1367 197.769 62.8086 197.14 62.1523C196.511 61.4915 196.197 60.6097 196.197 59.5068V59.2744C196.197 58.5407 196.336 57.8867 196.614 57.3125C196.896 56.7337 197.288 56.2826 197.789 55.959C198.295 55.6309 198.842 55.4668 199.43 55.4668C200.392 55.4668 201.139 55.7835 201.672 56.417C202.205 57.0505 202.472 57.9574 202.472 59.1377V59.6641H197.461C197.479 60.3932 197.691 60.9834 198.097 61.4346C198.507 61.8812 199.027 62.1045 199.656 62.1045C200.102 62.1045 200.48 62.0133 200.79 61.8311C201.1 61.6488 201.371 61.4072 201.604 61.1064L202.376 61.708C201.756 62.6605 200.827 63.1367 199.587 63.1367ZM199.43 56.5059C198.92 56.5059 198.491 56.6927 198.145 57.0664C197.798 57.4355 197.584 57.9551 197.502 58.625H201.207V58.5293C201.171 57.8867 200.998 57.39 200.688 57.0391C200.378 56.6836 199.959 56.5059 199.43 56.5059ZM210.203 59.3838C210.203 60.514 209.944 61.4232 209.424 62.1113C208.905 62.7949 208.207 63.1367 207.332 63.1367C206.398 63.1367 205.676 62.8063 205.165 62.1455L205.104 63H203.942V52.5H205.206V56.417C205.717 55.7835 206.421 55.4668 207.319 55.4668C208.216 55.4668 208.92 55.8063 209.431 56.4854C209.946 57.1644 210.203 58.0941 210.203 59.2744V59.3838ZM208.939 59.2402C208.939 58.3789 208.772 57.7135 208.44 57.2441C208.107 56.7747 207.628 56.54 207.004 56.54C206.17 56.54 205.571 56.9274 205.206 57.7021V60.9014C205.594 61.6761 206.198 62.0635 207.018 62.0635C207.624 62.0635 208.096 61.8288 208.433 61.3594C208.77 60.89 208.939 60.1836 208.939 59.2402ZM216.11 61.0381C216.11 60.6963 215.98 60.432 215.72 60.2451C215.465 60.0537 215.016 59.8896 214.373 59.7529C213.735 59.6162 213.227 59.4521 212.849 59.2607C212.475 59.0693 212.197 58.8415 212.015 58.5771C211.837 58.3128 211.748 57.9984 211.748 57.6338C211.748 57.0277 212.003 56.515 212.514 56.0957C213.029 55.6764 213.685 55.4668 214.483 55.4668C215.321 55.4668 216 55.6833 216.52 56.1162C217.044 56.5492 217.306 57.1029 217.306 57.7773H216.034C216.034 57.431 215.886 57.1325 215.59 56.8818C215.298 56.6312 214.929 56.5059 214.483 56.5059C214.022 56.5059 213.662 56.6061 213.403 56.8066C213.143 57.0072 213.013 57.2692 213.013 57.5928C213.013 57.8981 213.134 58.1283 213.375 58.2832C213.617 58.4382 214.052 58.5863 214.681 58.7275C215.314 58.8688 215.827 59.0374 216.219 59.2334C216.611 59.4294 216.9 59.6663 217.087 59.9443C217.279 60.2178 217.374 60.5527 217.374 60.9492C217.374 61.61 217.11 62.141 216.581 62.542C216.053 62.9385 215.367 63.1367 214.524 63.1367C213.931 63.1367 213.407 63.0319 212.951 62.8223C212.496 62.6126 212.138 62.321 211.878 61.9473C211.623 61.569 211.495 61.1611 211.495 60.7236H212.76C212.783 61.1475 212.951 61.4847 213.266 61.7354C213.585 61.9814 214.004 62.1045 214.524 62.1045C215.002 62.1045 215.385 62.0088 215.672 61.8174C215.964 61.6214 216.11 61.3617 216.11 61.0381ZM220.396 63H219.131V55.6035H220.396V63ZM219.029 53.6416C219.029 53.4365 219.09 53.2633 219.213 53.1221C219.341 52.9808 219.528 52.9102 219.774 52.9102C220.02 52.9102 220.207 52.9808 220.334 53.1221C220.462 53.2633 220.526 53.4365 220.526 53.6416C220.526 53.8467 220.462 54.0176 220.334 54.1543C220.207 54.291 220.02 54.3594 219.774 54.3594C219.528 54.3594 219.341 54.291 219.213 54.1543C219.09 54.0176 219.029 53.8467 219.029 53.6416ZM224.142 53.8125V55.6035H225.523V56.5811H224.142V61.168C224.142 61.4642 224.203 61.6875 224.326 61.8379C224.449 61.9837 224.659 62.0566 224.955 62.0566C225.101 62.0566 225.302 62.0293 225.557 61.9746V63C225.224 63.0911 224.901 63.1367 224.586 63.1367C224.021 63.1367 223.595 62.9658 223.308 62.624C223.021 62.2822 222.877 61.7969 222.877 61.168V56.5811H221.531V55.6035H222.877V53.8125H224.142ZM230.075 63.1367C229.073 63.1367 228.257 62.8086 227.628 62.1523C226.999 61.4915 226.685 60.6097 226.685 59.5068V59.2744C226.685 58.5407 226.824 57.8867 227.102 57.3125C227.384 56.7337 227.776 56.2826 228.278 55.959C228.783 55.6309 229.33 55.4668 229.918 55.4668C230.88 55.4668 231.627 55.7835 232.16 56.417C232.694 57.0505 232.96 57.9574 232.96 59.1377V59.6641H227.949C227.968 60.3932 228.18 60.9834 228.585 61.4346C228.995 61.8812 229.515 62.1045 230.144 62.1045C230.59 62.1045 230.969 62.0133 231.279 61.8311C231.588 61.6488 231.86 61.4072 232.092 61.1064L232.865 61.708C232.245 62.6605 231.315 63.1367 230.075 63.1367ZM229.918 56.5059C229.408 56.5059 228.979 56.6927 228.633 57.0664C228.287 57.4355 228.073 57.9551 227.99 58.625H231.696V58.5293C231.659 57.8867 231.486 57.39 231.176 57.0391C230.866 56.6836 230.447 56.5059 229.918 56.5059ZM234.457 62.3369C234.457 62.1182 234.521 61.9359 234.649 61.79C234.781 61.6442 234.977 61.5713 235.237 61.5713C235.496 61.5713 235.692 61.6442 235.824 61.79C235.961 61.9359 236.03 62.1182 236.03 62.3369C236.03 62.5465 235.961 62.722 235.824 62.8633C235.692 63.0046 235.496 63.0752 235.237 63.0752C234.977 63.0752 234.781 63.0046 234.649 62.8633C234.521 62.722 234.457 62.5465 234.457 62.3369ZM241.088 62.1045C241.539 62.1045 241.934 61.9678 242.271 61.6943C242.608 61.4209 242.795 61.0791 242.831 60.6689H244.028C244.005 61.0928 243.859 61.4961 243.59 61.8789C243.321 62.2617 242.961 62.5671 242.51 62.7949C242.063 63.0228 241.589 63.1367 241.088 63.1367C240.081 63.1367 239.279 62.8018 238.682 62.1318C238.089 61.4574 237.793 60.5368 237.793 59.3701V59.1582C237.793 58.4382 237.925 57.7979 238.19 57.2373C238.454 56.6768 238.832 56.2415 239.324 55.9316C239.821 55.6217 240.407 55.4668 241.081 55.4668C241.911 55.4668 242.599 55.7152 243.146 56.2119C243.697 56.7087 243.991 57.3535 244.028 58.1465H242.831C242.795 57.668 242.613 57.276 242.284 56.9707C241.961 56.6608 241.56 56.5059 241.081 56.5059C240.439 56.5059 239.94 56.7383 239.584 57.2031C239.233 57.6634 239.058 58.3311 239.058 59.2061V59.4453C239.058 60.2975 239.233 60.9538 239.584 61.4141C239.935 61.8743 240.436 62.1045 241.088 62.1045ZM245.115 59.2334C245.115 58.5088 245.256 57.8571 245.538 57.2783C245.825 56.6995 246.222 56.2529 246.728 55.9385C247.238 55.624 247.819 55.4668 248.471 55.4668C249.478 55.4668 250.292 55.8154 250.911 56.5127C251.536 57.21 251.848 58.1374 251.848 59.2949V59.3838C251.848 60.1038 251.709 60.751 251.431 61.3252C251.157 61.8949 250.763 62.3392 250.248 62.6582C249.738 62.9772 249.15 63.1367 248.485 63.1367C247.482 63.1367 246.669 62.7881 246.044 62.0908C245.424 61.3936 245.115 60.4707 245.115 59.3223V59.2334ZM246.386 59.3838C246.386 60.2041 246.575 60.8626 246.953 61.3594C247.336 61.8561 247.847 62.1045 248.485 62.1045C249.127 62.1045 249.638 61.8538 250.016 61.3525C250.394 60.8467 250.583 60.1403 250.583 59.2334C250.583 58.4222 250.39 57.766 250.002 57.2646C249.619 56.7588 249.109 56.5059 248.471 56.5059C247.847 56.5059 247.343 56.7542 246.96 57.251C246.577 57.7477 246.386 58.4587 246.386 59.3838ZM254.623 55.6035L254.657 56.4238C255.2 55.7858 255.931 55.4668 256.852 55.4668C257.886 55.4668 258.59 55.8633 258.964 56.6562C259.21 56.3008 259.529 56.0137 259.921 55.7949C260.318 55.5762 260.785 55.4668 261.323 55.4668C262.945 55.4668 263.77 56.3258 263.797 58.0439V63H262.532V58.1191C262.532 57.5905 262.412 57.1963 262.17 56.9365C261.929 56.6722 261.523 56.54 260.953 56.54C260.484 56.54 260.094 56.6813 259.784 56.9639C259.475 57.2419 259.295 57.6178 259.244 58.0918V63H257.973V58.1533C257.973 57.0778 257.447 56.54 256.394 56.54C255.564 56.54 254.997 56.8932 254.692 57.5996V63H253.427V55.6035H254.623Z" fill="#F1F3F4"/>
<path d="M265.964 63.8545H264.877L269.033 53.0469H270.114L265.964 63.8545ZM276.047 63C275.974 62.8542 275.915 62.5944 275.869 62.2207C275.281 62.8314 274.58 63.1367 273.764 63.1367C273.035 63.1367 272.435 62.9316 271.966 62.5215C271.501 62.1068 271.269 61.5827 271.269 60.9492C271.269 60.179 271.56 59.582 272.144 59.1582C272.732 58.7298 273.557 58.5156 274.618 58.5156H275.849V57.9346C275.849 57.4925 275.717 57.1416 275.452 56.8818C275.188 56.6175 274.798 56.4854 274.283 56.4854C273.832 56.4854 273.454 56.5993 273.149 56.8271C272.843 57.055 272.691 57.3307 272.691 57.6543H271.419C271.419 57.2852 271.549 56.9297 271.809 56.5879C272.073 56.2415 272.429 55.9681 272.875 55.7676C273.326 55.5671 273.821 55.4668 274.359 55.4668C275.211 55.4668 275.878 55.681 276.362 56.1094C276.845 56.5332 277.095 57.1188 277.114 57.8662V61.2705C277.114 61.9495 277.2 62.4896 277.373 62.8906V63H276.047ZM273.948 62.0361C274.345 62.0361 274.721 61.9336 275.076 61.7285C275.432 61.5234 275.689 61.2568 275.849 60.9287V59.4111H274.858C273.308 59.4111 272.533 59.8646 272.533 60.7715C272.533 61.168 272.666 61.4779 272.93 61.7012C273.194 61.9245 273.534 62.0361 273.948 62.0361ZM285.358 59.3838C285.358 60.514 285.098 61.4232 284.578 62.1113C284.059 62.7949 283.362 63.1367 282.487 63.1367C281.552 63.1367 280.83 62.8063 280.32 62.1455L280.258 63H279.096V52.5H280.361V56.417C280.871 55.7835 281.575 55.4668 282.473 55.4668C283.371 55.4668 284.075 55.8063 284.585 56.4854C285.1 57.1644 285.358 58.0941 285.358 59.2744V59.3838ZM284.093 59.2402C284.093 58.3789 283.927 57.7135 283.594 57.2441C283.261 56.7747 282.783 56.54 282.158 56.54C281.324 56.54 280.725 56.9274 280.361 57.7021V60.9014C280.748 61.6761 281.352 62.0635 282.172 62.0635C282.778 62.0635 283.25 61.8288 283.587 61.3594C283.924 60.89 284.093 60.1836 284.093 59.2402ZM286.622 59.2334C286.622 58.5088 286.764 57.8571 287.046 57.2783C287.333 56.6995 287.73 56.2529 288.236 55.9385C288.746 55.624 289.327 55.4668 289.979 55.4668C290.986 55.4668 291.799 55.8154 292.419 56.5127C293.044 57.21 293.356 58.1374 293.356 59.2949V59.3838C293.356 60.1038 293.217 60.751 292.939 61.3252C292.665 61.8949 292.271 62.3392 291.756 62.6582C291.246 62.9772 290.658 63.1367 289.992 63.1367C288.99 63.1367 288.176 62.7881 287.552 62.0908C286.932 61.3936 286.622 60.4707 286.622 59.3223V59.2334ZM287.894 59.3838C287.894 60.2041 288.083 60.8626 288.461 61.3594C288.844 61.8561 289.354 62.1045 289.992 62.1045C290.635 62.1045 291.145 61.8538 291.524 61.3525C291.902 60.8467 292.091 60.1403 292.091 59.2334C292.091 58.4222 291.897 57.766 291.51 57.2646C291.127 56.7588 290.617 56.5059 289.979 56.5059C289.354 56.5059 288.851 56.7542 288.468 57.251C288.085 57.7477 287.894 58.4587 287.894 59.3838ZM299.508 62.2686C299.016 62.8473 298.294 63.1367 297.341 63.1367C296.553 63.1367 295.951 62.9089 295.536 62.4531C295.126 61.9928 294.919 61.3138 294.914 60.416V55.6035H296.179V60.3818C296.179 61.5029 296.635 62.0635 297.546 62.0635C298.512 62.0635 299.155 61.7035 299.474 60.9834V55.6035H300.739V63H299.535L299.508 62.2686ZM304.382 53.8125V55.6035H305.763V56.5811H304.382V61.168C304.382 61.4642 304.444 61.6875 304.567 61.8379C304.69 61.9837 304.899 62.0566 305.196 62.0566C305.341 62.0566 305.542 62.0293 305.797 61.9746V63C305.464 63.0911 305.141 63.1367 304.826 63.1367C304.261 63.1367 303.835 62.9658 303.548 62.624C303.261 62.2822 303.117 61.7969 303.117 61.168V56.5811H301.771V55.6035H303.117V53.8125H304.382Z" fill="#909192"/>
<path d="M124.911 56V54C124.911 54 124.911 52 126.899 52C128.887 52 128.887 54 128.887 54V56" stroke="#F1F3F4"/>
<rect x="122.923" y="56" width="7.95242" height="7" rx="1" fill="#F1F3F4"/>
<g clip-path="url(#clip2_9_1315)">
<path d="M0 15C0 10.5817 3.58172 7 8 7H232C236.418 7 240 10.5817 240 15V40H0V15Z" fill="#35363A"/>
<g clip-path="url(#clip3_9_1315)">
<rect x="12" y="16" width="16" height="16" fill="black"/>
<path d="M39.2344 26.4219L40.9277 20.4688H41.748L41.2734 22.7832L39.4512 29H38.6367L39.2344 26.4219ZM37.4824 20.4688L38.8301 26.3047L39.2344 29H38.4258L36.3574 20.4688H37.4824ZM43.9395 26.2988L45.2578 20.4688H46.3887L44.3262 29H43.5176L43.9395 26.2988ZM41.8711 20.4688L43.5176 26.4219L44.1152 29H43.3008L41.543 22.7832L41.0625 20.4688H41.8711ZM49.9219 29.1172C49.4805 29.1172 49.0801 29.043 48.7207 28.8945C48.3652 28.7422 48.0586 28.5293 47.8008 28.2559C47.5469 27.9824 47.3516 27.6582 47.2148 27.2832C47.0781 26.9082 47.0098 26.498 47.0098 26.0527V25.8066C47.0098 25.291 47.0859 24.832 47.2383 24.4297C47.3906 24.0234 47.5977 23.6797 47.8594 23.3984C48.1211 23.1172 48.418 22.9043 48.75 22.7598C49.082 22.6152 49.4258 22.543 49.7812 22.543C50.2344 22.543 50.625 22.6211 50.9531 22.7773C51.2852 22.9336 51.5566 23.1523 51.7676 23.4336C51.9785 23.7109 52.1348 24.0391 52.2363 24.418C52.3379 24.793 52.3887 25.2031 52.3887 25.6484V26.1348H47.6543V25.25H51.3047V25.168C51.2891 24.8867 51.2305 24.6133 51.1289 24.3477C51.0312 24.082 50.875 23.8633 50.6602 23.6914C50.4453 23.5195 50.1523 23.4336 49.7812 23.4336C49.5352 23.4336 49.3086 23.4863 49.1016 23.5918C48.8945 23.6934 48.7168 23.8457 48.5684 24.0488C48.4199 24.252 48.3047 24.5 48.2227 24.793C48.1406 25.0859 48.0996 25.4238 48.0996 25.8066V26.0527C48.0996 26.3535 48.1406 26.6367 48.2227 26.9023C48.3086 27.1641 48.4316 27.3945 48.5918 27.5938C48.7559 27.793 48.9531 27.9492 49.1836 28.0625C49.418 28.1758 49.6836 28.2324 49.9805 28.2324C50.3633 28.2324 50.6875 28.1543 50.9531 27.998C51.2188 27.8418 51.4512 27.6328 51.6504 27.3711L52.3066 27.8926C52.1699 28.0996 51.9961 28.2969 51.7852 28.4844C51.5742 28.6719 51.3145 28.8242 51.0059 28.9414C50.7012 29.0586 50.3398 29.1172 49.9219 29.1172ZM53.6484 20H54.7383V27.7695L54.6445 29H53.6484V20ZM59.0215 25.7773V25.9004C59.0215 26.3613 58.9668 26.7891 58.8574 27.1836C58.748 27.5742 58.5879 27.9141 58.377 28.2031C58.166 28.4922 57.9082 28.7168 57.6035 28.877C57.2988 29.0371 56.9492 29.1172 56.5547 29.1172C56.1523 29.1172 55.7988 29.0488 55.4941 28.9121C55.1934 28.7715 54.9395 28.5703 54.7324 28.3086C54.5254 28.0469 54.3594 27.7305 54.2344 27.3594C54.1133 26.9883 54.0293 26.5703 53.9824 26.1055V25.5664C54.0293 25.0977 54.1133 24.6777 54.2344 24.3066C54.3594 23.9355 54.5254 23.6191 54.7324 23.3574C54.9395 23.0918 55.1934 22.8906 55.4941 22.7539C55.7949 22.6133 56.1445 22.543 56.543 22.543C56.9414 22.543 57.2949 22.6211 57.6035 22.7773C57.9121 22.9297 58.1699 23.1484 58.377 23.4336C58.5879 23.7188 58.748 24.0605 58.8574 24.459C58.9668 24.8535 59.0215 25.293 59.0215 25.7773ZM57.9316 25.9004V25.7773C57.9316 25.4609 57.9023 25.1641 57.8438 24.8867C57.7852 24.6055 57.6914 24.3594 57.5625 24.1484C57.4336 23.9336 57.2637 23.7656 57.0527 23.6445C56.8418 23.5195 56.582 23.457 56.2734 23.457C56 23.457 55.7617 23.5039 55.5586 23.5977C55.3594 23.6914 55.1895 23.8184 55.0488 23.9785C54.9082 24.1348 54.793 24.3145 54.7031 24.5176C54.6172 24.7168 54.5527 24.9238 54.5098 25.1387V26.5508C54.5723 26.8242 54.6738 27.0879 54.8145 27.3418C54.959 27.5918 55.1504 27.7969 55.3887 27.957C55.6309 28.1172 55.9297 28.1973 56.2852 28.1973C56.5781 28.1973 56.8281 28.1387 57.0352 28.0215C57.2461 27.9004 57.416 27.7344 57.5449 27.5234C57.6777 27.3125 57.7754 27.0684 57.8379 26.791C57.9004 26.5137 57.9316 26.2168 57.9316 25.9004ZM64.084 27.3184C64.084 27.1621 64.0488 27.0176 63.9785 26.8848C63.9121 26.748 63.7734 26.625 63.5625 26.5156C63.3555 26.4023 63.043 26.3047 62.625 26.2227C62.2734 26.1484 61.9551 26.0605 61.6699 25.959C61.3887 25.8574 61.1484 25.7344 60.9492 25.5898C60.7539 25.4453 60.6035 25.2754 60.498 25.0801C60.3926 24.8848 60.3398 24.6562 60.3398 24.3945C60.3398 24.1445 60.3945 23.9082 60.5039 23.6855C60.6172 23.4629 60.7754 23.2656 60.9785 23.0938C61.1855 22.9219 61.4336 22.7871 61.7227 22.6895C62.0117 22.5918 62.334 22.543 62.6895 22.543C63.1973 22.543 63.6309 22.6328 63.9902 22.8125C64.3496 22.9922 64.625 23.2324 64.8164 23.5332C65.0078 23.8301 65.1035 24.1602 65.1035 24.5234H64.0195C64.0195 24.3477 63.9668 24.1777 63.8613 24.0137C63.7598 23.8457 63.6094 23.707 63.4102 23.5977C63.2148 23.4883 62.9746 23.4336 62.6895 23.4336C62.3887 23.4336 62.1445 23.4805 61.957 23.5742C61.7734 23.6641 61.6387 23.7793 61.5527 23.9199C61.4707 24.0605 61.4297 24.209 61.4297 24.3652C61.4297 24.4824 61.4492 24.5879 61.4883 24.6816C61.5312 24.7715 61.6055 24.8555 61.7109 24.9336C61.8164 25.0078 61.9648 25.0781 62.1562 25.1445C62.3477 25.2109 62.5918 25.2773 62.8887 25.3438C63.4082 25.4609 63.8359 25.6016 64.1719 25.7656C64.5078 25.9297 64.7578 26.1309 64.9219 26.3691C65.0859 26.6074 65.168 26.8965 65.168 27.2363C65.168 27.5137 65.1094 27.7676 64.9922 27.998C64.8789 28.2285 64.7129 28.4277 64.4941 28.5957C64.2793 28.7598 64.0215 28.8887 63.7207 28.9824C63.4238 29.0723 63.0898 29.1172 62.7188 29.1172C62.1602 29.1172 61.6875 29.0176 61.3008 28.8184C60.9141 28.6191 60.6211 28.3613 60.4219 28.0449C60.2227 27.7285 60.123 27.3945 60.123 27.043H61.2129C61.2285 27.3398 61.3145 27.5762 61.4707 27.752C61.627 27.9238 61.8184 28.0469 62.0449 28.1211C62.2715 28.1914 62.4961 28.2266 62.7188 28.2266C63.0156 28.2266 63.2637 28.1875 63.4629 28.1094C63.666 28.0312 63.8203 27.9238 63.9258 27.7871C64.0312 27.6504 64.084 27.4941 64.084 27.3184ZM67.7695 22.6602V29H66.6797V22.6602H67.7695ZM66.5977 20.9785C66.5977 20.8027 66.6504 20.6543 66.7559 20.5332C66.8652 20.4121 67.0254 20.3516 67.2363 20.3516C67.4434 20.3516 67.6016 20.4121 67.7109 20.5332C67.8242 20.6543 67.8809 20.8027 67.8809 20.9785C67.8809 21.1465 67.8242 21.291 67.7109 21.4121C67.6016 21.5293 67.4434 21.5879 67.2363 21.5879C67.0254 21.5879 66.8652 21.5293 66.7559 21.4121C66.6504 21.291 66.5977 21.1465 66.5977 20.9785ZM72.1641 22.6602V23.4922H68.7363V22.6602H72.1641ZM69.8965 21.1191H70.9805V27.4297C70.9805 27.6445 71.0137 27.8066 71.0801 27.916C71.1465 28.0254 71.2324 28.0977 71.3379 28.1328C71.4434 28.168 71.5566 28.1855 71.6777 28.1855C71.7676 28.1855 71.8613 28.1777 71.959 28.1621C72.0605 28.1426 72.1367 28.127 72.1875 28.1152L72.1934 29C72.1074 29.0273 71.9941 29.0527 71.8535 29.0762C71.7168 29.1035 71.5508 29.1172 71.3555 29.1172C71.0898 29.1172 70.8457 29.0645 70.623 28.959C70.4004 28.8535 70.2227 28.6777 70.0898 28.4316C69.9609 28.1816 69.8965 27.8457 69.8965 27.4238V21.1191ZM76.0664 29.1172C75.625 29.1172 75.2246 29.043 74.8652 28.8945C74.5098 28.7422 74.2031 28.5293 73.9453 28.2559C73.6914 27.9824 73.4961 27.6582 73.3594 27.2832C73.2227 26.9082 73.1543 26.498 73.1543 26.0527V25.8066C73.1543 25.291 73.2305 24.832 73.3828 24.4297C73.5352 24.0234 73.7422 23.6797 74.0039 23.3984C74.2656 23.1172 74.5625 22.9043 74.8945 22.7598C75.2266 22.6152 75.5703 22.543 75.9258 22.543C76.3789 22.543 76.7695 22.6211 77.0977 22.7773C77.4297 22.9336 77.7012 23.1523 77.9121 23.4336C78.123 23.7109 78.2793 24.0391 78.3809 24.418C78.4824 24.793 78.5332 25.2031 78.5332 25.6484V26.1348H73.7988V25.25H77.4492V25.168C77.4336 24.8867 77.375 24.6133 77.2734 24.3477C77.1758 24.082 77.0195 23.8633 76.8047 23.6914C76.5898 23.5195 76.2969 23.4336 75.9258 23.4336C75.6797 23.4336 75.4531 23.4863 75.2461 23.5918C75.0391 23.6934 74.8613 23.8457 74.7129 24.0488C74.5645 24.252 74.4492 24.5 74.3672 24.793C74.2852 25.0859 74.2441 25.4238 74.2441 25.8066V26.0527C74.2441 26.3535 74.2852 26.6367 74.3672 26.9023C74.4531 27.1641 74.5762 27.3945 74.7363 27.5938C74.9004 27.793 75.0977 27.9492 75.3281 28.0625C75.5625 28.1758 75.8281 28.2324 76.125 28.2324C76.5078 28.2324 76.832 28.1543 77.0977 27.998C77.3633 27.8418 77.5957 27.6328 77.7949 27.3711L78.4512 27.8926C78.3145 28.0996 78.1406 28.2969 77.9297 28.4844C77.7188 28.6719 77.459 28.8242 77.1504 28.9414C76.8457 29.0586 76.4844 29.1172 76.0664 29.1172ZM85.4297 22.6602V23.4922H82.002V22.6602H85.4297ZM83.1621 21.1191H84.2461V27.4297C84.2461 27.6445 84.2793 27.8066 84.3457 27.916C84.4121 28.0254 84.498 28.0977 84.6035 28.1328C84.709 28.168 84.8223 28.1855 84.9434 28.1855C85.0332 28.1855 85.127 28.1777 85.2246 28.1621C85.3262 28.1426 85.4023 28.127 85.4531 28.1152L85.459 29C85.373 29.0273 85.2598 29.0527 85.1191 29.0762C84.9824 29.1035 84.8164 29.1172 84.6211 29.1172C84.3555 29.1172 84.1113 29.0645 83.8887 28.959C83.666 28.8535 83.4883 28.6777 83.3555 28.4316C83.2266 28.1816 83.1621 27.8457 83.1621 27.4238V21.1191ZM87.8789 22.6602V29H86.7891V22.6602H87.8789ZM86.707 20.9785C86.707 20.8027 86.7598 20.6543 86.8652 20.5332C86.9746 20.4121 87.1348 20.3516 87.3457 20.3516C87.5527 20.3516 87.7109 20.4121 87.8203 20.5332C87.9336 20.6543 87.9902 20.8027 87.9902 20.9785C87.9902 21.1465 87.9336 21.291 87.8203 21.4121C87.7109 21.5293 87.5527 21.5879 87.3457 21.5879C87.1348 21.5879 86.9746 21.5293 86.8652 21.4121C86.7598 21.291 86.707 21.1465 86.707 20.9785ZM92.2734 22.6602V23.4922H88.8457V22.6602H92.2734ZM90.0059 21.1191H91.0898V27.4297C91.0898 27.6445 91.123 27.8066 91.1895 27.916C91.2559 28.0254 91.3418 28.0977 91.4473 28.1328C91.5527 28.168 91.666 28.1855 91.7871 28.1855C91.877 28.1855 91.9707 28.1777 92.0684 28.1621C92.1699 28.1426 92.2461 28.127 92.2969 28.1152L92.3027 29C92.2168 29.0273 92.1035 29.0527 91.9629 29.0762C91.8262 29.1035 91.6602 29.1172 91.4648 29.1172C91.1992 29.1172 90.9551 29.0645 90.7324 28.959C90.5098 28.8535 90.332 28.6777 90.1992 28.4316C90.0703 28.1816 90.0059 27.8457 90.0059 27.4238V21.1191ZM94.7227 20V29H93.6328V20H94.7227ZM99.0938 29.1172C98.6523 29.1172 98.252 29.043 97.8926 28.8945C97.5371 28.7422 97.2305 28.5293 96.9727 28.2559C96.7188 27.9824 96.5234 27.6582 96.3867 27.2832C96.25 26.9082 96.1816 26.498 96.1816 26.0527V25.8066C96.1816 25.291 96.2578 24.832 96.4102 24.4297C96.5625 24.0234 96.7695 23.6797 97.0312 23.3984C97.293 23.1172 97.5898 22.9043 97.9219 22.7598C98.2539 22.6152 98.5977 22.543 98.9531 22.543C99.4062 22.543 99.7969 22.6211 100.125 22.7773C100.457 22.9336 100.729 23.1523 100.939 23.4336C101.15 23.7109 101.307 24.0391 101.408 24.418C101.51 24.793 101.561 25.2031 101.561 25.6484V26.1348H96.8262V25.25H100.477V25.168C100.461 24.8867 100.402 24.6133 100.301 24.3477C100.203 24.082 100.047 23.8633 99.832 23.6914C99.6172 23.5195 99.3242 23.4336 98.9531 23.4336C98.707 23.4336 98.4805 23.4863 98.2734 23.5918C98.0664 23.6934 97.8887 23.8457 97.7402 24.0488C97.5918 24.252 97.4766 24.5 97.3945 24.793C97.3125 25.0859 97.2715 25.4238 97.2715 25.8066V26.0527C97.2715 26.3535 97.3125 26.6367 97.3945 26.9023C97.4805 27.1641 97.6035 27.3945 97.7637 27.5938C97.9277 27.793 98.125 27.9492 98.3555 28.0625C98.5898 28.1758 98.8555 28.2324 99.1523 28.2324C99.5352 28.2324 99.8594 28.1543 100.125 27.998C100.391 27.8418 100.623 27.6328 100.822 27.3711L101.479 27.8926C101.342 28.0996 101.168 28.2969 100.957 28.4844C100.746 28.6719 100.486 28.8242 100.178 28.9414C99.873 29.0586 99.5117 29.1172 99.0938 29.1172Z" fill="white"/>
</g>
<rect x="203" y="40" width="33" height="29" transform="rotate(-90 203 40)" fill="url(#paint0_linear_9_1315)"/>
<path d="M220 20L223.5 23.5L227 27M227 20L220 27" stroke="white" stroke-width="1.5" stroke-linecap="round" stroke-linejoin="round"/>
<path d="M248 40H240V32C240 36.4183 243.582 40 248 40Z" fill="#35363A"/>
<g clip-path="url(#clip4_9_1315)">
<rect x="252" y="16" width="16" height="16" fill="black"/>
<path d="M279.234 26.4219L280.928 20.4688H281.748L281.273 22.7832L279.451 29H278.637L279.234 26.4219ZM277.482 20.4688L278.83 26.3047L279.234 29H278.426L276.357 20.4688H277.482ZM283.939 26.2988L285.258 20.4688H286.389L284.326 29H283.518L283.939 26.2988ZM281.871 20.4688L283.518 26.4219L284.115 29H283.301L281.543 22.7832L281.062 20.4688H281.871ZM289.922 29.1172C289.48 29.1172 289.08 29.043 288.721 28.8945C288.365 28.7422 288.059 28.5293 287.801 28.2559C287.547 27.9824 287.352 27.6582 287.215 27.2832C287.078 26.9082 287.01 26.498 287.01 26.0527V25.8066C287.01 25.291 287.086 24.832 287.238 24.4297C287.391 24.0234 287.598 23.6797 287.859 23.3984C288.121 23.1172 288.418 22.9043 288.75 22.7598C289.082 22.6152 289.426 22.543 289.781 22.543C290.234 22.543 290.625 22.6211 290.953 22.7773C291.285 22.9336 291.557 23.1523 291.768 23.4336C291.979 23.7109 292.135 24.0391 292.236 24.418C292.338 24.793 292.389 25.2031 292.389 25.6484V26.1348H287.654V25.25H291.305V25.168C291.289 24.8867 291.23 24.6133 291.129 24.3477C291.031 24.082 290.875 23.8633 290.66 23.6914C290.445 23.5195 290.152 23.4336 289.781 23.4336C289.535 23.4336 289.309 23.4863 289.102 23.5918C288.895 23.6934 288.717 23.8457 288.568 24.0488C288.42 24.252 288.305 24.5 288.223 24.793C288.141 25.0859 288.1 25.4238 288.1 25.8066V26.0527C288.1 26.3535 288.141 26.6367 288.223 26.9023C288.309 27.1641 288.432 27.3945 288.592 27.5938C288.756 27.793 288.953 27.9492 289.184 28.0625C289.418 28.1758 289.684 28.2324 289.98 28.2324C290.363 28.2324 290.688 28.1543 290.953 27.998C291.219 27.8418 291.451 27.6328 291.65 27.3711L292.307 27.8926C292.17 28.0996 291.996 28.2969 291.785 28.4844C291.574 28.6719 291.314 28.8242 291.006 28.9414C290.701 29.0586 290.34 29.1172 289.922 29.1172ZM293.648 20H294.738V27.7695L294.645 29H293.648V20ZM299.021 25.7773V25.9004C299.021 26.3613 298.967 26.7891 298.857 27.1836C298.748 27.5742 298.588 27.9141 298.377 28.2031C298.166 28.4922 297.908 28.7168 297.604 28.877C297.299 29.0371 296.949 29.1172 296.555 29.1172C296.152 29.1172 295.799 29.0488 295.494 28.9121C295.193 28.7715 294.939 28.5703 294.732 28.3086C294.525 28.0469 294.359 27.7305 294.234 27.3594C294.113 26.9883 294.029 26.5703 293.982 26.1055V25.5664C294.029 25.0977 294.113 24.6777 294.234 24.3066C294.359 23.9355 294.525 23.6191 294.732 23.3574C294.939 23.0918 295.193 22.8906 295.494 22.7539C295.795 22.6133 296.145 22.543 296.543 22.543C296.941 22.543 297.295 22.6211 297.604 22.7773C297.912 22.9297 298.17 23.1484 298.377 23.4336C298.588 23.7188 298.748 24.0605 298.857 24.459C298.967 24.8535 299.021 25.293 299.021 25.7773ZM297.932 25.9004V25.7773C297.932 25.4609 297.902 25.1641 297.844 24.8867C297.785 24.6055 297.691 24.3594 297.562 24.1484C297.434 23.9336 297.264 23.7656 297.053 23.6445C296.842 23.5195 296.582 23.457 296.273 23.457C296 23.457 295.762 23.5039 295.559 23.5977C295.359 23.6914 295.189 23.8184 295.049 23.9785C294.908 24.1348 294.793 24.3145 294.703 24.5176C294.617 24.7168 294.553 24.9238 294.51 25.1387V26.5508C294.572 26.8242 294.674 27.0879 294.814 27.3418C294.959 27.5918 295.15 27.7969 295.389 27.957C295.631 28.1172 295.93 28.1973 296.285 28.1973C296.578 28.1973 296.828 28.1387 297.035 28.0215C297.246 27.9004 297.416 27.7344 297.545 27.5234C297.678 27.3125 297.775 27.0684 297.838 26.791C297.9 26.5137 297.932 26.2168 297.932 25.9004ZM304.084 27.3184C304.084 27.1621 304.049 27.0176 303.979 26.8848C303.912 26.748 303.773 26.625 303.562 26.5156C303.355 26.4023 303.043 26.3047 302.625 26.2227C302.273 26.1484 301.955 26.0605 301.67 25.959C301.389 25.8574 301.148 25.7344 300.949 25.5898C300.754 25.4453 300.604 25.2754 300.498 25.0801C300.393 24.8848 300.34 24.6562 300.34 24.3945C300.34 24.1445 300.395 23.9082 300.504 23.6855C300.617 23.4629 300.775 23.2656 300.979 23.0938C301.186 22.9219 301.434 22.7871 301.723 22.6895C302.012 22.5918 302.334 22.543 302.689 22.543C303.197 22.543 303.631 22.6328 303.99 22.8125C304.35 22.9922 304.625 23.2324 304.816 23.5332C305.008 23.8301 305.104 24.1602 305.104 24.5234H304.02C304.02 24.3477 303.967 24.1777 303.861 24.0137C303.76 23.8457 303.609 23.707 303.41 23.5977C303.215 23.4883 302.975 23.4336 302.689 23.4336C302.389 23.4336 302.145 23.4805 301.957 23.5742C301.773 23.6641 301.639 23.7793 301.553 23.9199C301.471 24.0605 301.43 24.209 301.43 24.3652C301.43 24.4824 301.449 24.5879 301.488 24.6816C301.531 24.7715 301.605 24.8555 301.711 24.9336C301.816 25.0078 301.965 25.0781 302.156 25.1445C302.348 25.2109 302.592 25.2773 302.889 25.3438C303.408 25.4609 303.836 25.6016 304.172 25.7656C304.508 25.9297 304.758 26.1309 304.922 26.3691C305.086 26.6074 305.168 26.8965 305.168 27.2363C305.168 27.5137 305.109 27.7676 304.992 27.998C304.879 28.2285 304.713 28.4277 304.494 28.5957C304.279 28.7598 304.021 28.8887 303.721 28.9824C303.424 29.0723 303.09 29.1172 302.719 29.1172C302.16 29.1172 301.688 29.0176 301.301 28.8184C300.914 28.6191 300.621 28.3613 300.422 28.0449C300.223 27.7285 300.123 27.3945 300.123 27.043H301.213C301.229 27.3398 301.314 27.5762 301.471 27.752C301.627 27.9238 301.818 28.0469 302.045 28.1211C302.271 28.1914 302.496 28.2266 302.719 28.2266C303.016 28.2266 303.264 28.1875 303.463 28.1094C303.666 28.0312 303.82 27.9238 303.926 27.7871C304.031 27.6504 304.084 27.4941 304.084 27.3184ZM307.77 22.6602V29H306.68V22.6602H307.77ZM306.598 20.9785C306.598 20.8027 306.65 20.6543 306.756 20.5332C306.865 20.4121 307.025 20.3516 307.236 20.3516C307.443 20.3516 307.602 20.4121 307.711 20.5332C307.824 20.6543 307.881 20.8027 307.881 20.9785C307.881 21.1465 307.824 21.291 307.711 21.4121C307.602 21.5293 307.443 21.5879 307.236 21.5879C307.025 21.5879 306.865 21.5293 306.756 21.4121C306.65 21.291 306.598 21.1465 306.598 20.9785ZM312.164 22.6602V23.4922H308.736V22.6602H312.164ZM309.896 21.1191H310.98V27.4297C310.98 27.6445 311.014 27.8066 311.08 27.916C311.146 28.0254 311.232 28.0977 311.338 28.1328C311.443 28.168 311.557 28.1855 311.678 28.1855C311.768 28.1855 311.861 28.1777 311.959 28.1621C312.061 28.1426 312.137 28.127 312.188 28.1152L312.193 29C312.107 29.0273 311.994 29.0527 311.854 29.0762C311.717 29.1035 311.551 29.1172 311.355 29.1172C311.09 29.1172 310.846 29.0645 310.623 28.959C310.4 28.8535 310.223 28.6777 310.09 28.4316C309.961 28.1816 309.896 27.8457 309.896 27.4238V21.1191ZM316.066 29.1172C315.625 29.1172 315.225 29.043 314.865 28.8945C314.51 28.7422 314.203 28.5293 313.945 28.2559C313.691 27.9824 313.496 27.6582 313.359 27.2832C313.223 26.9082 313.154 26.498 313.154 26.0527V25.8066C313.154 25.291 313.23 24.832 313.383 24.4297C313.535 24.0234 313.742 23.6797 314.004 23.3984C314.266 23.1172 314.562 22.9043 314.895 22.7598C315.227 22.6152 315.57 22.543 315.926 22.543C316.379 22.543 316.77 22.6211 317.098 22.7773C317.43 22.9336 317.701 23.1523 317.912 23.4336C318.123 23.7109 318.279 24.0391 318.381 24.418C318.482 24.793 318.533 25.2031 318.533 25.6484V26.1348H313.799V25.25H317.449V25.168C317.434 24.8867 317.375 24.6133 317.273 24.3477C317.176 24.082 317.02 23.8633 316.805 23.6914C316.59 23.5195 316.297 23.4336 315.926 23.4336C315.68 23.4336 315.453 23.4863 315.246 23.5918C315.039 23.6934 314.861 23.8457 314.713 24.0488C314.564 24.252 314.449 24.5 314.367 24.793C314.285 25.0859 314.244 25.4238 314.244 25.8066V26.0527C314.244 26.3535 314.285 26.6367 314.367 26.9023C314.453 27.1641 314.576 27.3945 314.736 27.5938C314.9 27.793 315.098 27.9492 315.328 28.0625C315.562 28.1758 315.828 28.2324 316.125 28.2324C316.508 28.2324 316.832 28.1543 317.098 27.998C317.363 27.8418 317.596 27.6328 317.795 27.3711L318.451 27.8926C318.314 28.0996 318.141 28.2969 317.93 28.4844C317.719 28.6719 317.459 28.8242 317.15 28.9414C316.846 29.0586 316.484 29.1172 316.066 29.1172ZM325.43 22.6602V23.4922H322.002V22.6602H325.43ZM323.162 21.1191H324.246V27.4297C324.246 27.6445 324.279 27.8066 324.346 27.916C324.412 28.0254 324.498 28.0977 324.604 28.1328C324.709 28.168 324.822 28.1855 324.943 28.1855C325.033 28.1855 325.127 28.1777 325.225 28.1621C325.326 28.1426 325.402 28.127 325.453 28.1152L325.459 29C325.373 29.0273 325.26 29.0527 325.119 29.0762C324.982 29.1035 324.816 29.1172 324.621 29.1172C324.355 29.1172 324.111 29.0645 323.889 28.959C323.666 28.8535 323.488 28.6777 323.355 28.4316C323.227 28.1816 323.162 27.8457 323.162 27.4238V21.1191ZM327.879 22.6602V29H326.789V22.6602H327.879ZM326.707 20.9785C326.707 20.8027 326.76 20.6543 326.865 20.5332C326.975 20.4121 327.135 20.3516 327.346 20.3516C327.553 20.3516 327.711 20.4121 327.82 20.5332C327.934 20.6543 327.99 20.8027 327.99 20.9785C327.99 21.1465 327.934 21.291 327.82 21.4121C327.711 21.5293 327.553 21.5879 327.346 21.5879C327.135 21.5879 326.975 21.5293 326.865 21.4121C326.76 21.291 326.707 21.1465 326.707 20.9785ZM332.273 22.6602V23.4922H328.846V22.6602H332.273ZM330.006 21.1191H331.09V27.4297C331.09 27.6445 331.123 27.8066 331.189 27.916C331.256 28.0254 331.342 28.0977 331.447 28.1328C331.553 28.168 331.666 28.1855 331.787 28.1855C331.877 28.1855 331.971 28.1777 332.068 28.1621C332.17 28.1426 332.246 28.127 332.297 28.1152L332.303 29C332.217 29.0273 332.104 29.0527 331.963 29.0762C331.826 29.1035 331.66 29.1172 331.465 29.1172C331.199 29.1172 330.955 29.0645 330.732 28.959C330.51 28.8535 330.332 28.6777 330.199 28.4316C330.07 28.1816 330.006 27.8457 330.006 27.4238V21.1191ZM334.723 20V29H333.633V20H334.723ZM339.094 29.1172C338.652 29.1172 338.252 29.043 337.893 28.8945C337.537 28.7422 337.23 28.5293 336.973 28.2559C336.719 27.9824 336.523 27.6582 336.387 27.2832C336.25 26.9082 336.182 26.498 336.182 26.0527V25.8066C336.182 25.291 336.258 24.832 336.41 24.4297C336.562 24.0234 336.77 23.6797 337.031 23.3984C337.293 23.1172 337.59 22.9043 337.922 22.7598C338.254 22.6152 338.598 22.543 338.953 22.543C339.406 22.543 339.797 22.6211 340.125 22.7773C340.457 22.9336 340.729 23.1523 340.939 23.4336C341.15 23.7109 341.307 24.0391 341.408 24.418C341.51 24.793 341.561 25.2031 341.561 25.6484V26.1348H336.826V25.25H340.477V25.168C340.461 24.8867 340.402 24.6133 340.301 24.3477C340.203 24.082 340.047 23.8633 339.832 23.6914C339.617 23.5195 339.324 23.4336 338.953 23.4336C338.707 23.4336 338.48 23.4863 338.273 23.5918C338.066 23.6934 337.889 23.8457 337.74 24.0488C337.592 24.252 337.477 24.5 337.395 24.793C337.312 25.0859 337.271 25.4238 337.271 25.8066V26.0527C337.271 26.3535 337.312 26.6367 337.395 26.9023C337.48 27.1641 337.604 27.3945 337.764 27.5938C337.928 27.793 338.125 27.9492 338.355 28.0625C338.59 28.1758 338.855 28.2324 339.152 28.2324C339.535 28.2324 339.859 28.1543 340.125 27.998C340.391 27.8418 340.623 27.6328 340.822 27.3711L341.479 27.8926C341.342 28.0996 341.168 28.2969 340.957 28.4844C340.746 28.6719 340.486 28.8242 340.178 28.9414C339.873 29.0586 339.512 29.1172 339.094 29.1172Z" fill="white"/>
</g>
<path d="M460 20L463.5 23.5L467 27M467 20L460 27" stroke="white" stroke-width="1.5" stroke-linecap="round" stroke-linejoin="round"/>
<g clip-path="url(#clip5_9_1315)">
<path d="M490.896 23.5H500.883M495.889 18V29" stroke="#BEC1C6" stroke-width="2" stroke-linecap="round"/>
</g>
</g>
</g>
<defs>
<linearGradient id="paint0_linear_9_1315" x1="219.5" y1="40" x2="219.5" y2="69" gradientUnits="userSpaceOnUse">
<stop stop-color="#35363A" stop-opacity="0"/>
<stop offset="0.341368" stop-color="#35363A"/>
</linearGradient>
<clipPath id="clip0_9_1315">
<rect width="512" height="111" fill="white"/>
</clipPath>
<clipPath id="clip1_9_1315">
<rect width="77" height="16" fill="white" transform="translate(81 84)"/>
</clipPath>
<clipPath id="clip2_9_1315">
<rect width="512" height="40" fill="white"/>
</clipPath>
<clipPath id="clip3_9_1315">
<rect width="90" height="16" fill="white" transform="translate(12 16)"/>
</clipPath>
<clipPath id="clip4_9_1315">
<rect width="90" height="16" fill="white" transform="translate(252 16)"/>
</clipPath>
<clipPath id="clip5_9_1315">
<rect width="32" height="40" fill="white" transform="translate(480)"/>
</clipPath>
</defs>
</svg>
