<svg id="Layer_1" viewBox="0 0 64 64" xmlns="http://www.w3.org/2000/svg" data-name="Layer 1">
    <path d="m39.124 2.5h-25.124a4 4 0 0 0 -4 4v50a4 4 0 0 0 4 4h36a4 4 0 0 0 4-4v-39.124z" fill="#ededed" />
    <path d="m53.707 17.083-14.29-14.29a1 1 0 0 0 -1.707.707v11.29a4 4 0 0 0 4 4h11.29a1 1 0 0 0 .707-1.707z"
        fill="#c6c6c6" />
    <path
        d="m53 43.393h-22.914l-2.4-2.745a2 2 0 0 0 -1.505-.683h-15.181a2 2 0 0 0 -2 2v14.535a5.006 5.006 0 0 0 5 5h36a5.006 5.006 0 0 0 5-5v-11.107a2 2 0 0 0 -2-2z"
        fill="#2563eb" />
    <path
        d="m33.983 21.462-3.332 4.467a1 1 0 0 1 -1.708-.177l-5.243-11.315a1 1 0 0 0 -1.844.07l-5.856 15.643a1 1 0 0 0 .937 1.35h24.676a1 1 0 0 0 .777-1.629l-6.828-8.44a1 1 0 0 0 -1.579.031z"
        fill="#c6c6c6" />
    <circle cx="30.801" cy="16.317" fill="#c6c6c6" r="2.459" />
    <g fill="#fff">
        <path d="m19.371 48.168h1.907v8.932h-1.907z" />
        <path
            d="m26.163 57.216a3.482 3.482 0 0 1 -1.7-.383 3.076 3.076 0 0 1 -1.111-1.027 4.422 4.422 0 0 1 -.6-1.464 7.968 7.968 0 0 1 0-3.414 4.373 4.373 0 0 1 .607-1.47 3.136 3.136 0 0 1 1.118-1.026 3.474 3.474 0 0 1 1.7-.384 3.664 3.664 0 0 1 1.92.5 2.192 2.192 0 0 1 .725.728 4.9 4.9 0 0 1 .534 1.259l-1.751.42a2.524 2.524 0 0 0 -.528-.911 1.248 1.248 0 0 0 -.961-.361 1.272 1.272 0 0 0 -.63.152 1.376 1.376 0 0 0 -.449.4 2.27 2.27 0 0 0 -.3.562 4.072 4.072 0 0 0 -.174.648 5.577 5.577 0 0 0 -.078.659q-.017.327-.017.593a4.488 4.488 0 0 0 .42 2.178 1.33 1.33 0 0 0 1.272.713 1.636 1.636 0 0 0 .594-.1 1.269 1.269 0 0 0 .426-.27 1.983 1.983 0 0 0 .324-.414 5.5 5.5 0 0 0 .276-.528l1.8.468a5.292 5.292 0 0 1 -.58 1.135 3.061 3.061 0 0 1 -.738.746 3.527 3.527 0 0 1 -2.099.591z" />
        <path d="m32.33 51.24v5.86h-1.824v-8.932h1.932l3.228 5.592v-5.592h1.824v8.932h-1.79z" />
        <path
            d="m41.979 57.216a3.844 3.844 0 0 1 -1.9-.516 3.009 3.009 0 0 1 -.852-.678 3.934 3.934 0 0 1 -.627-1.062l1.595-.7a4.484 4.484 0 0 0 .312.57 1.928 1.928 0 0 0 .385.438 1.6 1.6 0 0 0 .5.282 1.847 1.847 0 0 0 .641.1 2.446 2.446 0 0 0 .493-.048 1.266 1.266 0 0 0 .425-.162.811.811 0 0 0 .294-.312 1.02 1.02 0 0 0 .109-.5.875.875 0 0 0 -.456-.743 5.875 5.875 0 0 0 -1.212-.6 7.488 7.488 0 0 1 -2.086-1.085 2.1 2.1 0 0 1 -.721-1.692 2.191 2.191 0 0 1 .841-1.764 3.177 3.177 0 0 1 2.1-.7 3.564 3.564 0 0 1 1.9.516 2.869 2.869 0 0 1 .743.648 4.281 4.281 0 0 1 .589 1.008l-1.765.54a2.452 2.452 0 0 0 -.546-.834 1.283 1.283 0 0 0 -.929-.318 1.964 1.964 0 0 0 -.391.042 1.3 1.3 0 0 0 -.359.132.719.719 0 0 0 -.265.252.728.728 0 0 0 -.1.39.6.6 0 0 0 .115.348 1.124 1.124 0 0 0 .389.324 8.049 8.049 0 0 0 1.3.576 6.232 6.232 0 0 1 1.824.973 2.16 2.16 0 0 1 .852 1.847 2.525 2.525 0 0 1 -.84 2.029 3.588 3.588 0 0 1 -2.358.699z" />
    </g>
</svg>