<svg id="Layer_1" viewBox="0 0 64 64" xmlns="http://www.w3.org/2000/svg" data-name="Layer 1">
    <path d="m39.124 2.5h-25.124a4 4 0 0 0 -4 4v50a4 4 0 0 0 4 4h36a4 4 0 0 0 4-4v-39.124z" fill="#ededed" />
    <path d="m53.707 17.083-14.29-14.29a1 1 0 0 0 -1.707.707v11.29a4 4 0 0 0 4 4h11.29a1 1 0 0 0 .707-1.707z"
        fill="#c6c6c6" />
    <path
        d="m53 43.393h-22.914l-2.4-2.745a2 2 0 0 0 -1.505-.683h-15.181a2 2 0 0 0 -2 2v14.535a5.006 5.006 0 0 0 5 5h36a5.006 5.006 0 0 0 5-5v-11.107a2 2 0 0 0 -2-2z"
        fill="#b50617" />
    <path
        d="m33.983 21.462-3.332 4.467a1 1 0 0 1 -1.708-.177l-5.243-11.315a1 1 0 0 0 -1.844.07l-5.856 15.643a1 1 0 0 0 .937 1.35h24.676a1 1 0 0 0 .777-1.629l-6.828-8.44a1 1 0 0 0 -1.579.031z"
        fill="#c6c6c6" />
    <circle cx="30.801" cy="16.317" fill="#c6c6c6" r="2.459" />
    <g fill="#fff">
        <path d="m23.366 48.168h1.908v8.932h-1.908z" />
        <path
            d="m30.158 57.216a3.478 3.478 0 0 1 -1.7-.383 3.076 3.076 0 0 1 -1.111-1.027 4.424 4.424 0 0 1 -.6-1.464 8.01 8.01 0 0 1 0-3.414 4.356 4.356 0 0 1 .609-1.47 3.125 3.125 0 0 1 1.117-1.026 3.467 3.467 0 0 1 1.7-.384 3.661 3.661 0 0 1 1.92.5 2.2 2.2 0 0 1 .726.728 4.932 4.932 0 0 1 .535 1.259l-1.752.42a2.526 2.526 0 0 0 -.529-.911 1.244 1.244 0 0 0 -.96-.361 1.266 1.266 0 0 0 -.63.152 1.39 1.39 0 0 0 -.45.4 2.3 2.3 0 0 0 -.294.562 3.966 3.966 0 0 0 -.173.648 5.19 5.19 0 0 0 -.079.659q-.017.327-.017.593a4.488 4.488 0 0 0 .42 2.178 1.331 1.331 0 0 0 1.271.713 1.632 1.632 0 0 0 .594-.1 1.273 1.273 0 0 0 .427-.27 2.013 2.013 0 0 0 .318-.418 5.085 5.085 0 0 0 .276-.528l1.8.468a5.247 5.247 0 0 1 -.576 1.139 3.075 3.075 0 0 1 -.737.746 3.532 3.532 0 0 1 -2.105.591z" />
        <path
            d="m37.664 57.216a3.869 3.869 0 0 1 -1.762-.365 3.207 3.207 0 0 1 -1.168-1 4.138 4.138 0 0 1 -.646-1.464 7.9 7.9 0 0 1 0-3.515 4.151 4.151 0 0 1 .646-1.465 3.193 3.193 0 0 1 1.168-.995 3.843 3.843 0 0 1 1.762-.367 3.8 3.8 0 0 1 1.755.367 3.19 3.19 0 0 1 1.162.995 4.136 4.136 0 0 1 .648 1.465 7.642 7.642 0 0 1 .2 1.757 5.229 5.229 0 0 1 -.958 3.36 3.366 3.366 0 0 1 -2.807 1.227zm0-7.536a1.515 1.515 0 0 0 -1.409.726 4.342 4.342 0 0 0 -.457 2.226 4.342 4.342 0 0 0 .457 2.226 1.719 1.719 0 0 0 2.806 0 4.352 4.352 0 0 0 .457-2.226 4.352 4.352 0 0 0 -.457-2.226 1.5 1.5 0 0 0 -1.397-.726z" />
    </g>
</svg>