<svg id="Icons" height="512" viewBox="0 0 60 60" width="512" xmlns="http://www.w3.org/2000/svg"><path d="m52 43v14a2.006 2.006 0 0 1 -2 2h-40a2.006 2.006 0 0 1 -2-2v-14l1-1h42z" fill="#ef6d3f"/><path d="m52 14v29h-44v-40a2.006 2.006 0 0 1 2-2h29a1.275 1.275 0 0 1 .2.01 4.511 4.511 0 0 1 3.2 1.39l8.2 8.2a4.511 4.511 0 0 1 1.39 3.2 1.275 1.275 0 0 1 .01.2z" fill="#e8edf3"/><g fill="#bfcedd"><path d="m51.99 13.8a2.006 2.006 0 0 0 -1.99-1.8h-6a3 3 0 0 1 -3-3v-6a2.006 2.006 0 0 0 -1.8-1.99 4.511 4.511 0 0 1 3.2 1.39l8.2 8.2a4.511 4.511 0 0 1 1.39 3.2z"/><path d="m16 31h5a0 0 0 0 1 0 0v6a0 0 0 0 1 0 0h-5a1 1 0 0 1 -1-1v-4a1 1 0 0 1 1-1z"/><path d="m21 25h6v6h-6z"/><path d="m27 31h6a0 0 0 0 1 0 0v5a1 1 0 0 1 -1 1h-4a1 1 0 0 1 -1-1v-5a0 0 0 0 1 0 0z"/><path d="m33 25h6v6h-6z"/><path d="m39 31h5a1 1 0 0 1 1 1v4a1 1 0 0 1 -1 1h-4a1 1 0 0 1 -1-1v-5a0 0 0 0 1 0 0z"/><path d="m16 19h4a1 1 0 0 1 1 1v5a0 0 0 0 1 0 0h-5a1 1 0 0 1 -1-1v-4a1 1 0 0 1 1-1z"/><path d="m28 19h4a1 1 0 0 1 1 1v5a0 0 0 0 1 0 0h-6a0 0 0 0 1 0 0v-5a1 1 0 0 1 1-1z"/><path d="m40 19h4a1 1 0 0 1 1 1v4a1 1 0 0 1 -1 1h-5a0 0 0 0 1 0 0v-5a1 1 0 0 1 1-1z"/></g><path d="m33 46a1 1 0 0 0 -1 1v4.514l-3.152-5.044a1 1 0 0 0 -1.848.53v8a1 1 0 0 0 2 0v-4.514l3.152 5.044a1 1 0 0 0 1.848-.53v-8a1 1 0 0 0 -1-1z" fill="#fff"/><path d="m22 46h-3a1 1 0 0 0 -1 1v8a1 1 0 0 0 2 0v-3h2a3 3 0 0 0 0-6zm0 4h-2v-2h2a1 1 0 0 1 0 2z" fill="#fff"/><path d="m39 48h1a1 1 0 0 1 1 1 1 1 0 0 0 2 0 3 3 0 0 0 -3-3h-1a3 3 0 0 0 -3 3v4a3 3 0 0 0 3 3h1a3 3 0 0 0 3-3v-1a1 1 0 0 0 -1-1h-1a1 1 0 0 0 0 2 1 1 0 0 1 -1 1h-1a1 1 0 0 1 -1-1v-4a1 1 0 0 1 1-1z" fill="#fff"/></svg>