<svg id="Icons" height="512" viewBox="0 0 60 60" width="512" xmlns="http://www.w3.org/2000/svg">
    <path d="m52 43v14a2.006 2.006 0 0 1 -2 2h-40a2.006 2.006 0 0 1 -2-2v-14l1-1h42z" fill="#d97706" />
    <path
        d="m52 14v29h-44v-40a2.006 2.006 0 0 1 2-2h29a1.275 1.275 0 0 1 .2.01 4.511 4.511 0 0 1 3.2 1.39l8.2 8.2a4.511 4.511 0 0 1 1.39 3.2 1.275 1.275 0 0 1 .01.2z"
        fill="#e8edf3" />
    <path
        d="m51.99 13.8a2.006 2.006 0 0 0 -1.99-1.8h-6a3 3 0 0 1 -3-3v-6a2.006 2.006 0 0 0 -1.8-1.99 4.511 4.511 0 0 1 3.2 1.39l8.2 8.2a4.511 4.511 0 0 1 1.39 3.2z"
        fill="#bfcedd" />
    <path d="m34 34.01a4 4 0 1 1 -7.88-.98l1.88-7.03v-1h4v1l1.88 7.03a4.169 4.169 0 0 1 .12.98z" fill="#bfcedd" />
    <path d="m30 35a1 1 0 0 1 -1-1v-1a1 1 0 0 1 2 0v1a1 1 0 0 1 -1 1z" fill="#9eb4c6" />
    <path
        d="m31 10h1a1 1 0 0 0 0-2h-1v-2h1a1 1 0 0 0 0-2h-1v-3h-2v5h-1a1 1 0 0 0 0 2h1v2h-1a1 1 0 0 0 0 2h1v2h-1a1 1 0 0 0 0 2h1v6h2v-4h1a1 1 0 0 0 0-2h-1v-2h1a1 1 0 0 0 0-2h-1z"
        fill="#bfcedd" />
    <g fill="#fff">
        <path d="m34 48a1 1 0 0 0 0-2h-6a1 1 0 0 0 0 2h2v6h-2a1 1 0 0 0 0 2h6a1 1 0 0 0 0-2h-2v-6z" />
        <path d="m24 54h-4l4.8-6.4a1 1 0 0 0 -.8-1.6h-6a1 1 0 0 0 0 2h4l-4.8 6.4a1 1 0 0 0 .8 1.6h6a1 1 0 0 0 0-2z" />
        <path d="m41 46h-3a1 1 0 0 0 -1 1v8a1 1 0 0 0 2 0v-3h2a3 3 0 0 0 0-6zm0 4h-2v-2h2a1 1 0 0 1 0 2z" />
    </g>
    <rect fill="#9eb4c6" height="5" rx="1" width="6" x="27" y="21" />
</svg>