<svg width="1024" height="1024" viewBox="0 0 1024 1024" fill="none" xmlns="http://www.w3.org/2000/svg">
<path d="M509.661 628.575C574.962 628.575 627.899 575.422 627.899 509.854C627.899 444.286 574.962 391.133 509.661 391.133C444.36 391.133 391.423 444.286 391.423 509.854C391.423 575.422 444.36 628.575 509.661 628.575Z" fill="#597C82"/>
<path fill-rule="evenodd" clip-rule="evenodd" d="M752.725 995.439C606.439 995.439 422.615 902.106 272.883 751.831C39.4299 517.471 -38.549 228.586 95.4055 94.0874C138.022 51.2292 198.712 28.5609 270.586 28.5609C416.932 28.5609 600.757 121.954 750.489 272.29C983.881 506.59 1061.8 795.475 927.966 929.973C885.35 972.831 824.72 995.439 752.725 995.439ZM270.646 109.562C219.809 109.562 179.973 123.586 152.409 151.332C53.8772 250.227 135.181 499.034 329.886 694.525C464.989 830.172 627.052 914.498 752.725 914.498C803.623 914.498 843.399 900.474 871.024 872.728C969.616 773.773 888.252 525.027 693.546 329.535C558.443 193.828 396.38 109.562 270.646 109.562Z" fill="url(#paint0_linear_1_3)"/>
<path fill-rule="evenodd" clip-rule="evenodd" d="M270.646 995.439C198.773 995.439 138.082 972.831 95.4659 929.973C-38.5491 795.475 39.4298 506.59 272.943 272.23C422.675 121.954 606.5 28.5609 752.786 28.5609C824.78 28.5609 885.35 51.2292 928.087 94.0874C1061.92 228.465 983.942 517.41 750.61 751.831C600.818 902.106 416.932 995.439 270.646 995.439ZM752.725 109.502C627.052 109.502 464.989 193.828 329.886 329.475C135.181 525.027 53.9376 773.834 152.409 872.728C179.973 900.414 219.809 914.498 270.646 914.498C396.38 914.498 558.383 830.172 693.546 694.525C888.252 498.973 969.434 250.106 870.963 151.272C843.338 123.586 803.563 109.502 752.725 109.502Z" fill="url(#paint1_linear_1_3)"/>
<defs>
<linearGradient id="paint0_linear_1_3" x1="39.8207" y1="28.5609" x2="983.592" y2="995.334" gradientUnits="userSpaceOnUse">
<stop stop-color="#B8B8B8"/>
<stop offset="1" stop-color="#686868"/>
</linearGradient>
<linearGradient id="paint1_linear_1_3" x1="39.8419" y1="28.5609" x2="983.611" y2="995.419" gradientUnits="userSpaceOnUse">
<stop stop-color="#B8B8B8"/>
<stop offset="1" stop-color="#686868"/>
</linearGradient>
</defs>
</svg>
